<svg xmlns="http://www.w3.org/2000/svg" xmlns:xlink="http://www.w3.org/1999/xlink" width="800" zoomAndPan="magnify" viewBox="0 0 600 299.999988" height="400" preserveAspectRatio="xMidYMid meet" version="1.0"><defs><g/><clipPath id="de77bc7bc4"><path d="M 217.730469 30 L 370.671875 30 L 370.671875 154.136719 L 217.730469 154.136719 Z M 217.730469 30 " clip-rule="nonzero"/></clipPath></defs><path fill="#e4ad44" d="M 230.25 103.714844 C 228.667969 103.714844 227.382812 105 227.382812 106.589844 C 227.382812 108.175781 228.667969 109.460938 230.25 109.460938 L 249.136719 109.460938 C 249.210938 112.742188 249.410156 116.011719 249.738281 119.222656 C 249.890625 120.703125 251.136719 121.804688 252.589844 121.804688 C 252.6875 121.804688 252.785156 121.800781 252.886719 121.789062 C 254.460938 121.628906 255.609375 120.21875 255.445312 118.636719 C 255.136719 115.621094 254.949219 112.546875 254.875 109.460938 L 277.941406 109.460938 C 279.527344 109.460938 280.8125 108.175781 280.8125 106.589844 C 280.8125 105 279.527344 103.714844 277.941406 103.714844 L 254.875 103.714844 C 255.191406 90.492188 257.660156 77.914062 261.949219 67.167969 L 291.332031 67.167969 L 291.332031 90.304688 C 291.332031 91.890625 292.617188 93.179688 294.199219 93.179688 C 295.785156 93.179688 297.070312 91.890625 297.070312 90.304688 L 297.070312 67.167969 L 326.453125 67.167969 C 330.742188 77.914062 333.210938 90.492188 333.523438 103.714844 L 310.457031 103.714844 C 308.875 103.714844 307.589844 105 307.589844 106.589844 C 307.589844 108.175781 308.875 109.460938 310.457031 109.460938 L 333.527344 109.460938 C 333.453125 112.546875 333.261719 115.621094 332.957031 118.636719 C 332.792969 120.21875 333.941406 121.628906 335.515625 121.789062 C 335.617188 121.800781 335.714844 121.804688 335.8125 121.804688 C 337.265625 121.804688 338.511719 120.703125 338.664062 119.222656 C 338.992188 116.011719 339.1875 112.742188 339.265625 109.460938 L 358.152344 109.460938 C 359.734375 109.460938 361.019531 108.175781 361.019531 106.589844 C 361.019531 105 359.734375 103.714844 358.152344 103.714844 L 339.265625 103.714844 C 338.964844 90.636719 336.640625 78.109375 332.585938 67.167969 L 342.421875 67.167969 C 344.007812 67.167969 345.289062 65.878906 345.289062 64.292969 C 345.289062 62.707031 344.007812 61.417969 342.421875 61.417969 L 330.238281 61.417969 C 327.921875 56.289062 325.195312 51.59375 322.09375 47.460938 C 321.140625 46.191406 319.34375 45.9375 318.074219 46.890625 C 316.808594 47.84375 316.554688 49.644531 317.507812 50.914062 C 319.878906 54.074219 322.011719 57.601562 323.894531 61.417969 L 297.070312 61.417969 L 297.070312 42.542969 C 297.070312 40.953125 295.785156 39.667969 294.199219 39.667969 C 292.617188 39.667969 291.332031 40.953125 291.332031 42.542969 L 291.332031 61.417969 L 264.507812 61.417969 C 266.390625 57.601562 268.523438 54.074219 270.894531 50.914062 C 271.847656 49.644531 271.59375 47.84375 270.328125 46.890625 C 269.058594 45.9375 267.261719 46.191406 266.308594 47.460938 C 263.207031 51.59375 260.480469 56.289062 258.164062 61.417969 L 245.980469 61.417969 C 244.394531 61.417969 243.109375 62.707031 243.109375 64.292969 C 243.109375 65.878906 244.394531 67.167969 245.980469 67.167969 L 255.816406 67.167969 C 251.761719 78.109375 249.4375 90.636719 249.136719 103.714844 L 230.25 103.714844 " fill-opacity="1" fill-rule="nonzero"/><path fill="#e4ad44" d="M 323.914062 183.253906 L 264.488281 183.253906 C 262.902344 183.253906 261.621094 184.539062 261.621094 186.125 C 261.621094 187.714844 262.902344 189 264.488281 189 L 323.914062 189 C 325.5 189 326.785156 187.714844 326.785156 186.125 C 326.785156 184.539062 325.5 183.253906 323.914062 183.253906 " fill-opacity="1" fill-rule="nonzero"/><path fill="#e4ad44" d="M 326.769531 169.386719 C 319.929688 169.386719 314.699219 165.648438 313.34375 160.160156 L 339.574219 160.160156 C 339.578125 160.160156 339.578125 160.160156 339.582031 160.160156 C 339.589844 160.160156 339.59375 160.160156 339.597656 160.160156 L 340.195312 160.160156 C 338.839844 165.648438 333.609375 169.386719 326.769531 169.386719 Z M 326.769531 138.066406 L 334.9375 154.410156 L 318.601562 154.410156 Z M 294.199219 102.757812 C 296.308594 102.757812 298.023438 104.476562 298.023438 106.589844 C 298.023438 108.699219 296.308594 110.421875 294.199219 110.421875 C 292.089844 110.421875 290.375 108.699219 290.375 106.589844 C 290.375 104.476562 292.089844 102.757812 294.199219 102.757812 Z M 253.464844 154.410156 L 261.632812 138.070312 L 269.800781 154.410156 Z M 261.632812 169.386719 C 254.792969 169.386719 249.5625 165.648438 248.207031 160.160156 L 248.804688 160.160156 C 248.808594 160.160156 248.8125 160.160156 248.820312 160.160156 C 248.820312 160.160156 248.824219 160.160156 248.828125 160.160156 L 275.058594 160.160156 C 273.707031 165.648438 268.472656 169.386719 261.632812 169.386719 Z M 343.40625 154.410156 L 341.355469 154.410156 L 331.085938 133.863281 C 332.46875 133.414062 333.910156 132.726562 335.414062 131.75 C 336.742188 130.886719 337.121094 129.105469 336.261719 127.773438 C 335.398438 126.445312 333.621094 126.066406 332.292969 126.929688 C 330.3125 128.214844 328.578125 128.78125 326.917969 128.785156 C 326.867188 128.78125 326.820312 128.773438 326.769531 128.773438 C 326.738281 128.773438 326.707031 128.78125 326.675781 128.78125 C 323.507812 128.6875 320.582031 126.5625 316.675781 123.5 C 311.515625 119.449219 305.285156 114.5625 297.070312 118.382812 L 297.070312 115.726562 C 300.945312 114.503906 303.761719 110.871094 303.761719 106.589844 C 303.761719 101.308594 299.476562 97.011719 294.199219 97.011719 C 288.925781 97.011719 284.636719 101.308594 284.636719 106.589844 C 284.636719 110.871094 287.457031 114.503906 291.332031 115.726562 L 291.332031 118.382812 C 283.121094 114.5625 276.886719 119.449219 271.726562 123.5 C 267.820312 126.5625 264.894531 128.6875 261.730469 128.78125 C 261.695312 128.78125 261.664062 128.773438 261.632812 128.773438 C 261.582031 128.773438 261.53125 128.78125 261.480469 128.785156 C 259.820312 128.78125 258.089844 128.214844 256.109375 126.929688 C 254.78125 126.066406 253.003906 126.445312 252.140625 127.773438 C 251.277344 129.105469 251.65625 130.886719 252.988281 131.75 C 254.492188 132.726562 255.933594 133.414062 257.320312 133.863281 L 247.046875 154.410156 L 244.996094 154.410156 C 243.414062 154.410156 242.128906 155.699219 242.128906 157.285156 C 242.128906 167.460938 250.511719 175.136719 261.632812 175.136719 C 272.753906 175.136719 281.140625 167.460938 281.140625 157.285156 C 281.140625 155.699219 279.855469 154.410156 278.269531 154.410156 L 276.21875 154.410156 L 265.90625 133.78125 C 269.441406 132.585938 272.515625 130.179688 275.265625 128.023438 C 281.359375 123.242188 285.246094 120.664062 291.332031 125.03125 L 291.332031 174.375 L 278.292969 174.375 C 276.707031 174.375 275.421875 175.660156 275.421875 177.25 C 275.421875 178.835938 276.707031 180.121094 278.292969 180.121094 L 310.109375 180.121094 C 311.695312 180.121094 312.980469 178.835938 312.980469 177.25 C 312.980469 175.660156 311.695312 174.375 310.109375 174.375 L 297.070312 174.375 L 297.070312 125.03125 C 303.15625 120.664062 307.042969 123.242188 313.140625 128.023438 C 315.886719 130.179688 318.960938 132.585938 322.496094 133.78125 L 312.183594 154.410156 L 310.132812 154.410156 C 308.546875 154.410156 307.261719 155.699219 307.261719 157.285156 C 307.261719 167.460938 315.648438 175.136719 326.769531 175.136719 C 337.890625 175.136719 346.277344 167.460938 346.277344 157.285156 C 346.277344 155.699219 344.992188 154.410156 343.40625 154.410156 " fill-opacity="1" fill-rule="nonzero"/><g clip-path="url(#de77bc7bc4)"><path fill="#e4ad44" d="M 294.203125 30 C 252.035156 30 217.730469 64.359375 217.730469 106.589844 C 217.730469 123.496094 223.121094 139.527344 233.324219 152.945312 C 234.28125 154.207031 236.082031 154.453125 237.34375 153.488281 C 238.605469 152.527344 238.847656 150.726562 237.886719 149.464844 C 228.453125 137.054688 223.46875 122.230469 223.46875 106.589844 C 223.46875 67.527344 255.199219 35.746094 294.203125 35.746094 C 333.203125 35.746094 364.933594 67.527344 364.933594 106.589844 C 364.933594 122.230469 359.949219 137.054688 350.515625 149.464844 C 349.554688 150.726562 349.796875 152.527344 351.058594 153.492188 C 351.578125 153.886719 352.1875 154.078125 352.796875 154.078125 C 353.660156 154.078125 354.515625 153.6875 355.078125 152.945312 C 365.28125 139.527344 370.671875 123.496094 370.671875 106.589844 C 370.671875 64.359375 336.367188 30 294.203125 30 " fill-opacity="1" fill-rule="nonzero"/></g><path stroke-linecap="butt" transform="matrix(0.748199, -0.00839447, 0.00841414, 0.749953, 491.999972, 268.584412)" fill="none" stroke-linejoin="miter" d="M -0.00159467 2.002142 L 20.057038 1.997484 " stroke="#032552" stroke-width="4" stroke-opacity="1" stroke-miterlimit="4"/><g fill="#032552" fill-opacity="1"><g transform="translate(247.624503, 236.113574)"><g><path d="M 2.5 -2.09375 L 5.90625 -2.09375 L 5.90625 -29.640625 L 2.5 -29.640625 L 2.5 -31.734375 L 13.234375 -31.734375 L 13.234375 -29.640625 L 9.828125 -29.640625 L 9.828125 -14.453125 L 10 -14.453125 L 14.234375 -19.234375 L 23.78125 -29.640625 L 20.140625 -29.640625 L 20.140625 -31.734375 L 29.921875 -31.734375 L 29.921875 -29.640625 L 26.875 -29.640625 L 17.046875 -19.046875 L 28.015625 -2.09375 L 31.140625 -2.09375 L 31.140625 0 L 20.28125 0 L 20.28125 -2.09375 L 23.5 -2.09375 L 14.328125 -16.234375 L 9.828125 -11.375 L 9.828125 -2.09375 L 13.234375 -2.09375 L 13.234375 0 L 2.5 0 Z M 2.5 -2.09375 "/></g></g></g><g fill="#032552" fill-opacity="1"><g transform="translate(281.072855, 236.113574)"><g><path d="M 8.140625 -2.09375 L 12.453125 -2.09375 L 12.453125 -12.78125 L 3.3125 -29.640625 L 0.90625 -29.640625 L 0.90625 -31.734375 L 11.875 -31.734375 L 11.875 -29.640625 L 7.78125 -29.640625 L 15.09375 -15.546875 L 15.28125 -15.546875 L 22.78125 -29.640625 L 18.6875 -29.640625 L 18.6875 -31.734375 L 27.921875 -31.734375 L 27.921875 -29.640625 L 25.515625 -29.640625 L 16.375 -13 L 16.375 -2.09375 L 20.6875 -2.09375 L 20.6875 0 L 8.140625 0 Z M 8.140625 -2.09375 "/></g></g></g><g fill="#032552" fill-opacity="1"><g transform="translate(311.203702, 236.113574)"><g><path d="M 15.546875 0.546875 C 13.546875 0.546875 11.726562 0.164062 10.09375 -0.59375 C 8.457031 -1.351562 7.0625 -2.441406 5.90625 -3.859375 C 4.757812 -5.285156 3.867188 -7.015625 3.234375 -9.046875 C 2.597656 -11.078125 2.28125 -13.351562 2.28125 -15.875 C 2.28125 -18.507812 2.597656 -20.84375 3.234375 -22.875 C 3.867188 -24.90625 4.753906 -26.613281 5.890625 -28 C 7.023438 -29.394531 8.394531 -30.457031 10 -31.1875 C 11.601562 -31.914062 13.378906 -32.28125 15.328125 -32.28125 C 17.296875 -32.28125 18.9375 -31.953125 20.25 -31.296875 C 21.570312 -30.648438 22.445312 -29.84375 22.875 -28.875 L 23.046875 -28.875 L 23.046875 -31.734375 L 26.328125 -31.734375 L 26.328125 -22.46875 L 23.046875 -22.46875 L 23.046875 -24.828125 C 23.046875 -26.335938 22.378906 -27.554688 21.046875 -28.484375 C 19.710938 -29.410156 17.972656 -29.875 15.828125 -29.875 C 14.210938 -29.875 12.820312 -29.578125 11.65625 -28.984375 C 10.488281 -28.390625 9.535156 -27.582031 8.796875 -26.5625 C 8.054688 -25.550781 7.507812 -24.367188 7.15625 -23.015625 C 6.8125 -21.671875 6.640625 -20.257812 6.640625 -18.78125 L 6.640625 -13.28125 C 6.640625 -11.613281 6.859375 -10.113281 7.296875 -8.78125 C 7.734375 -7.445312 8.367188 -6.300781 9.203125 -5.34375 C 10.035156 -4.382812 11.054688 -3.644531 12.265625 -3.125 C 13.484375 -2.613281 14.867188 -2.359375 16.421875 -2.359375 C 18.566406 -2.359375 20.363281 -2.921875 21.8125 -4.046875 C 23.269531 -5.171875 24.335938 -6.597656 25.015625 -8.328125 L 26.78125 -7.453125 C 26.507812 -6.578125 26.066406 -5.664062 25.453125 -4.71875 C 24.847656 -3.78125 24.082031 -2.914062 23.15625 -2.125 C 22.238281 -1.34375 21.140625 -0.703125 19.859375 -0.203125 C 18.585938 0.296875 17.148438 0.546875 15.546875 0.546875 Z M 15.546875 0.546875 "/></g></g></g><path stroke-linecap="butt" transform="matrix(0.748199, -0.00839447, 0.00841414, 0.749953, 89.925665, 268.584412)" fill="none" stroke-linejoin="miter" d="M -0.00147651 2.002143 L 20.057156 1.997485 " stroke="#032552" stroke-width="4" stroke-opacity="1" stroke-miterlimit="4"/><g fill="#e4ad44" fill-opacity="1"><g transform="translate(106.88522, 273.352098)"><g><path d="M 1.28125 -0.625 C 1.300781 -0.6875 1.316406 -0.878906 1.328125 -1.203125 C 1.347656 -1.523438 1.359375 -1.929688 1.359375 -2.421875 L 1.359375 -4.703125 C 1.359375 -5.234375 1.347656 -5.660156 1.328125 -5.984375 C 1.316406 -6.304688 1.300781 -6.488281 1.28125 -6.53125 L 0.546875 -6.65625 L 0.578125 -7.125 L 3.46875 -7.125 C 4.25 -7.125 4.84375 -6.976562 5.25 -6.6875 C 5.664062 -6.394531 5.875 -5.972656 5.875 -5.421875 C 5.875 -4.972656 5.695312 -4.59375 5.34375 -4.28125 C 5 -3.976562 4.550781 -3.804688 4 -3.765625 L 3.84375 -3.84375 C 4.625 -3.820312 5.21875 -3.65625 5.625 -3.34375 C 6.039062 -3.03125 6.25 -2.597656 6.25 -2.046875 C 6.25 -1.429688 5.972656 -0.9375 5.421875 -0.5625 C 4.878906 -0.1875 4.144531 0 3.21875 0 L 0.578125 0 L 0.546875 -0.46875 Z M 2.375 -2.15625 C 2.375 -1.789062 2.378906 -1.460938 2.390625 -1.171875 C 2.398438 -0.890625 2.410156 -0.710938 2.421875 -0.640625 C 2.523438 -0.628906 2.664062 -0.613281 2.84375 -0.59375 C 3.019531 -0.570312 3.160156 -0.5625 3.265625 -0.5625 C 3.890625 -0.5625 4.359375 -0.671875 4.671875 -0.890625 C 4.984375 -1.117188 5.140625 -1.46875 5.140625 -1.9375 C 5.140625 -2.40625 4.972656 -2.757812 4.640625 -3 C 4.316406 -3.238281 3.828125 -3.359375 3.171875 -3.359375 C 2.859375 -3.359375 2.644531 -3.359375 2.53125 -3.359375 C 2.414062 -3.359375 2.3125 -3.351562 2.21875 -3.34375 L 2.21875 -3.96875 C 2.375 -3.957031 2.519531 -3.953125 2.65625 -3.953125 C 2.789062 -3.953125 2.941406 -3.953125 3.109375 -3.953125 C 3.640625 -3.953125 4.046875 -4.066406 4.328125 -4.296875 C 4.617188 -4.535156 4.765625 -4.867188 4.765625 -5.296875 C 4.765625 -5.710938 4.628906 -6.03125 4.359375 -6.25 C 4.097656 -6.476562 3.71875 -6.59375 3.21875 -6.59375 L 2.40625 -6.59375 C 2.394531 -6.539062 2.382812 -6.359375 2.375 -6.046875 C 2.375 -5.742188 2.375 -5.398438 2.375 -5.015625 Z M 2.375 -2.15625 "/></g></g></g><g fill="#e4ad44" fill-opacity="1"><g transform="translate(117.460834, 273.352098)"><g><path d="M 5.90625 0.0625 C 5.664062 0.0390625 5.453125 0.0234375 5.265625 0.015625 C 5.085938 0.00390625 4.921875 0 4.765625 0 L 0.59375 0 L 0.5625 -0.46875 L 1.3125 -0.625 C 1.320312 -0.664062 1.328125 -0.757812 1.328125 -0.90625 C 1.335938 -1.050781 1.34375 -1.25 1.34375 -1.5 C 1.351562 -1.75 1.359375 -2.054688 1.359375 -2.421875 L 1.359375 -4.703125 C 1.359375 -5.066406 1.351562 -5.375 1.34375 -5.625 C 1.34375 -5.882812 1.335938 -6.085938 1.328125 -6.234375 C 1.328125 -6.378906 1.320312 -6.46875 1.3125 -6.5 L 0.5625 -6.671875 L 0.59375 -7.125 L 4.5 -7.125 C 4.613281 -7.125 4.734375 -7.125 4.859375 -7.125 C 4.984375 -7.125 5.117188 -7.128906 5.265625 -7.140625 C 5.410156 -7.160156 5.554688 -7.171875 5.703125 -7.171875 L 5.953125 -5.578125 L 5.40625 -5.484375 L 5 -6.515625 C 4.9375 -6.523438 4.863281 -6.53125 4.78125 -6.53125 C 4.707031 -6.539062 4.625 -6.546875 4.53125 -6.546875 L 3.15625 -6.546875 C 3 -6.546875 2.863281 -6.539062 2.75 -6.53125 C 2.632812 -6.53125 2.519531 -6.523438 2.40625 -6.515625 C 2.40625 -6.484375 2.398438 -6.390625 2.390625 -6.234375 C 2.390625 -6.085938 2.382812 -5.914062 2.375 -5.71875 C 2.375 -5.519531 2.375 -5.328125 2.375 -5.140625 L 2.375 -1.859375 C 2.375 -1.691406 2.375 -1.523438 2.375 -1.359375 C 2.382812 -1.203125 2.390625 -1.054688 2.390625 -0.921875 C 2.398438 -0.796875 2.40625 -0.707031 2.40625 -0.65625 C 2.53125 -0.644531 2.648438 -0.632812 2.765625 -0.625 C 2.890625 -0.625 3.03125 -0.625 3.1875 -0.625 L 4.359375 -0.625 C 4.535156 -0.625 4.679688 -0.625 4.796875 -0.625 C 4.910156 -0.625 5 -0.628906 5.0625 -0.640625 C 5.125 -0.648438 5.175781 -0.660156 5.21875 -0.671875 L 5.859375 -1.828125 L 6.40625 -1.71875 Z M 4.5625 -2.484375 L 4.40625 -3.3125 C 4.363281 -3.332031 4.296875 -3.34375 4.203125 -3.34375 C 4.109375 -3.351562 3.988281 -3.359375 3.84375 -3.359375 L 2.921875 -3.359375 C 2.816406 -3.359375 2.703125 -3.351562 2.578125 -3.34375 C 2.453125 -3.34375 2.328125 -3.335938 2.203125 -3.328125 L 2.203125 -4 C 2.328125 -3.988281 2.453125 -3.976562 2.578125 -3.96875 C 2.703125 -3.96875 2.816406 -3.96875 2.921875 -3.96875 L 3.84375 -3.96875 C 3.988281 -3.96875 4.109375 -3.96875 4.203125 -3.96875 C 4.296875 -3.976562 4.363281 -3.992188 4.40625 -4.015625 L 4.5625 -4.84375 L 5.078125 -4.84375 L 5.078125 -2.484375 Z M 4.5625 -2.484375 "/></g></g></g><g fill="#e4ad44" fill-opacity="1"><g transform="translate(127.98784, 273.352098)"><g><path d="M 0.6875 -7.125 L 2.78125 -7.125 L 5.328125 -1.3125 L 5.109375 -1.3125 L 7.609375 -7.125 L 9.578125 -7.125 L 9.625 -6.671875 L 8.859375 -6.515625 C 8.859375 -6.398438 8.859375 -6.1875 8.859375 -5.875 C 8.859375 -5.5625 8.863281 -5.226562 8.875 -4.875 L 8.921875 -2.640625 C 8.929688 -2.242188 8.941406 -1.910156 8.953125 -1.640625 C 8.960938 -1.367188 8.96875 -1.148438 8.96875 -0.984375 C 8.976562 -0.828125 8.988281 -0.707031 9 -0.625 L 9.734375 -0.46875 L 9.71875 0 L 7.140625 0 L 7.109375 -0.46875 L 7.84375 -0.625 C 7.851562 -0.71875 7.859375 -0.828125 7.859375 -0.953125 C 7.859375 -1.085938 7.859375 -1.269531 7.859375 -1.5 C 7.859375 -1.738281 7.851562 -2.0625 7.84375 -2.46875 L 7.828125 -6.78125 L 8.140625 -6.78125 L 5.203125 0.03125 L 4.765625 0.03125 L 1.765625 -6.796875 L 2.078125 -6.796875 L 2.09375 -2.65625 C 2.09375 -1.988281 2.09375 -1.5 2.09375 -1.1875 C 2.09375 -0.882812 2.097656 -0.695312 2.109375 -0.625 L 2.9375 -0.46875 L 2.90625 0 L 0.515625 0 L 0.484375 -0.46875 L 1.3125 -0.625 C 1.320312 -0.6875 1.328125 -0.789062 1.328125 -0.9375 C 1.335938 -1.09375 1.34375 -1.296875 1.34375 -1.546875 C 1.351562 -1.804688 1.359375 -2.113281 1.359375 -2.46875 L 1.390625 -4.875 C 1.398438 -5.226562 1.398438 -5.550781 1.390625 -5.84375 C 1.390625 -6.144531 1.390625 -6.363281 1.390625 -6.5 L 0.65625 -6.671875 Z M 0.6875 -7.125 "/></g></g></g><g fill="#e4ad44" fill-opacity="1"><g transform="translate(142.087555, 273.352098)"><g/></g></g><g fill="#e4ad44" fill-opacity="1"><g transform="translate(148.191206, 273.352098)"><g><path d="M 3.28125 0.03125 L 0.625 -6.5 L 0.015625 -6.671875 L 0.046875 -7.125 L 2.5625 -7.125 L 2.59375 -6.671875 L 1.84375 -6.5 L 3.9375 -1.203125 L 3.6875 -1.203125 L 5.640625 -6.5 L 4.796875 -6.671875 L 4.828125 -7.125 L 7.0625 -7.125 L 7.09375 -6.671875 L 6.484375 -6.5 L 3.796875 0.03125 Z M 3.28125 0.03125 "/></g></g></g><g fill="#e4ad44" fill-opacity="1"><g transform="translate(159.070624, 273.352098)"><g><path d="M 0.59375 0 L 0.578125 -0.46875 L 1.3125 -0.625 C 1.332031 -0.664062 1.34375 -0.757812 1.34375 -0.90625 C 1.34375 -1.050781 1.34375 -1.25 1.34375 -1.5 C 1.351562 -1.75 1.359375 -2.054688 1.359375 -2.421875 L 1.359375 -4.703125 C 1.359375 -5.066406 1.351562 -5.375 1.34375 -5.625 C 1.34375 -5.882812 1.34375 -6.085938 1.34375 -6.234375 C 1.34375 -6.390625 1.332031 -6.476562 1.3125 -6.5 L 0.578125 -6.671875 L 0.59375 -7.125 L 3.1875 -7.125 L 3.203125 -6.671875 L 2.46875 -6.5 C 2.445312 -6.476562 2.429688 -6.398438 2.421875 -6.265625 C 2.410156 -6.128906 2.398438 -5.9375 2.390625 -5.6875 C 2.390625 -5.4375 2.390625 -5.109375 2.390625 -4.703125 L 2.390625 -2.421875 C 2.390625 -2.023438 2.390625 -1.703125 2.390625 -1.453125 C 2.398438 -1.203125 2.410156 -1.007812 2.421875 -0.875 C 2.429688 -0.75 2.445312 -0.664062 2.46875 -0.625 L 3.203125 -0.46875 L 3.1875 0 Z M 0.59375 0 "/></g></g></g><g fill="#e4ad44" fill-opacity="1"><g transform="translate(166.60822, 273.352098)"><g><path d="M 6.140625 -1.734375 L 6.140625 -4.453125 C 6.140625 -4.929688 6.132812 -5.3125 6.125 -5.59375 C 6.125 -5.882812 6.113281 -6.101562 6.09375 -6.25 C 6.082031 -6.394531 6.078125 -6.476562 6.078125 -6.5 L 5.25 -6.671875 L 5.28125 -7.125 L 7.59375 -7.125 L 7.625 -6.671875 L 6.875 -6.5 C 6.875 -6.476562 6.867188 -6.394531 6.859375 -6.25 C 6.847656 -6.101562 6.835938 -5.882812 6.828125 -5.59375 C 6.816406 -5.300781 6.8125 -4.921875 6.8125 -4.453125 L 6.8125 -1.5625 C 6.8125 -1.300781 6.8125 -1.035156 6.8125 -0.765625 C 6.8125 -0.503906 6.816406 -0.234375 6.828125 0.046875 L 6.28125 0.046875 L 1.8125 -5.96875 L 2.078125 -5.96875 L 2.078125 -2.703125 C 2.078125 -2.222656 2.078125 -1.835938 2.078125 -1.546875 C 2.085938 -1.253906 2.097656 -1.035156 2.109375 -0.890625 C 2.128906 -0.753906 2.144531 -0.664062 2.15625 -0.625 L 2.96875 -0.46875 L 2.9375 0 L 0.609375 0 L 0.578125 -0.46875 L 1.3125 -0.625 C 1.332031 -0.664062 1.34375 -0.753906 1.34375 -0.890625 C 1.351562 -1.023438 1.363281 -1.238281 1.375 -1.53125 C 1.382812 -1.832031 1.390625 -2.222656 1.390625 -2.703125 L 1.390625 -4.78125 C 1.390625 -5.144531 1.382812 -5.441406 1.375 -5.671875 C 1.363281 -5.910156 1.351562 -6.09375 1.34375 -6.21875 C 1.34375 -6.351562 1.332031 -6.445312 1.3125 -6.5 L 0.578125 -6.671875 L 0.609375 -7.125 L 2.265625 -7.125 L 6.359375 -1.734375 Z M 6.140625 -1.734375 "/></g></g></g><g fill="#e4ad44" fill-opacity="1"><g transform="translate(178.569174, 273.352098)"><g><path d="M 0.59375 -7.125 L 3.53125 -7.125 C 4.8125 -7.125 5.8125 -6.816406 6.53125 -6.203125 C 7.25 -5.597656 7.609375 -4.742188 7.609375 -3.640625 C 7.609375 -2.929688 7.441406 -2.300781 7.109375 -1.75 C 6.773438 -1.195312 6.3125 -0.765625 5.71875 -0.453125 C 5.125 -0.148438 4.445312 0 3.6875 0 L 0.59375 0 L 0.578125 -0.46875 L 1.3125 -0.625 C 1.332031 -0.695312 1.347656 -0.90625 1.359375 -1.25 C 1.367188 -1.59375 1.375 -1.984375 1.375 -2.421875 L 1.375 -4.703125 C 1.375 -5.179688 1.367188 -5.585938 1.359375 -5.921875 C 1.347656 -6.253906 1.332031 -6.445312 1.3125 -6.5 L 0.578125 -6.671875 Z M 2.421875 -6.46875 C 2.421875 -6.394531 2.421875 -6.289062 2.421875 -6.15625 C 2.421875 -6.03125 2.414062 -5.851562 2.40625 -5.625 C 2.40625 -5.40625 2.40625 -5.097656 2.40625 -4.703125 L 2.40625 -2.421875 C 2.40625 -2.171875 2.40625 -1.9375 2.40625 -1.71875 C 2.414062 -1.507812 2.425781 -1.320312 2.4375 -1.15625 C 2.445312 -0.988281 2.457031 -0.847656 2.46875 -0.734375 C 2.726562 -0.703125 2.957031 -0.675781 3.15625 -0.65625 C 3.363281 -0.632812 3.566406 -0.625 3.765625 -0.625 C 4.617188 -0.625 5.269531 -0.847656 5.71875 -1.296875 C 6.164062 -1.753906 6.390625 -2.421875 6.390625 -3.296875 C 6.390625 -3.816406 6.320312 -4.28125 6.1875 -4.6875 C 6.0625 -5.09375 5.867188 -5.4375 5.609375 -5.71875 C 5.359375 -6 5.046875 -6.207031 4.671875 -6.34375 C 4.304688 -6.488281 3.882812 -6.5625 3.40625 -6.5625 C 3.257812 -6.5625 3.101562 -6.550781 2.9375 -6.53125 C 2.78125 -6.519531 2.609375 -6.5 2.421875 -6.46875 Z M 2.421875 -6.46875 "/></g></g></g><g fill="#e4ad44" fill-opacity="1"><g transform="translate(190.627343, 273.352098)"><g><path d="M 4.234375 0.109375 C 3.535156 0.109375 2.910156 -0.0390625 2.359375 -0.34375 C 1.816406 -0.65625 1.390625 -1.085938 1.078125 -1.640625 C 0.773438 -2.191406 0.625 -2.820312 0.625 -3.53125 C 0.625 -4.25 0.78125 -4.882812 1.09375 -5.4375 C 1.40625 -6 1.835938 -6.4375 2.390625 -6.75 C 2.941406 -7.070312 3.566406 -7.234375 4.265625 -7.234375 C 4.941406 -7.234375 5.539062 -7.078125 6.0625 -6.765625 C 6.582031 -6.460938 6.988281 -6.039062 7.28125 -5.5 C 7.570312 -4.957031 7.71875 -4.332031 7.71875 -3.625 C 7.71875 -3.082031 7.625 -2.582031 7.4375 -2.125 C 7.257812 -1.675781 7.003906 -1.28125 6.671875 -0.9375 C 6.347656 -0.601562 5.976562 -0.34375 5.5625 -0.15625 C 5.144531 0.0195312 4.703125 0.109375 4.234375 0.109375 Z M 4.34375 -0.546875 C 4.789062 -0.546875 5.171875 -0.660156 5.484375 -0.890625 C 5.804688 -1.117188 6.054688 -1.441406 6.234375 -1.859375 C 6.410156 -2.273438 6.5 -2.765625 6.5 -3.328125 C 6.5 -3.984375 6.394531 -4.554688 6.1875 -5.046875 C 5.988281 -5.546875 5.710938 -5.929688 5.359375 -6.203125 C 5.003906 -6.484375 4.59375 -6.625 4.125 -6.625 C 3.425781 -6.625 2.875 -6.367188 2.46875 -5.859375 C 2.070312 -5.347656 1.875 -4.648438 1.875 -3.765625 C 1.875 -3.128906 1.976562 -2.570312 2.1875 -2.09375 C 2.40625 -1.613281 2.695312 -1.234375 3.0625 -0.953125 C 3.4375 -0.679688 3.863281 -0.546875 4.34375 -0.546875 Z M 4.34375 -0.546875 "/></g></g></g><g fill="#e4ad44" fill-opacity="1"><g transform="translate(202.734122, 273.352098)"><g/></g></g><g fill="#e4ad44" fill-opacity="1"><g transform="translate(208.837772, 273.352098)"><g><path d="M 0.03125 0 L 0.015625 -0.46875 L 0.609375 -0.625 L 3.109375 -6.921875 L 3.8125 -7.34375 L 6.46875 -0.625 L 7.0625 -0.46875 L 7.03125 0 L 4.578125 0 L 4.5625 -0.46875 L 5.296875 -0.625 L 4.578125 -2.421875 L 4.453125 -2.8125 L 3.125 -6.109375 L 3.40625 -6.265625 L 2.140625 -2.8125 L 2 -2.4375 L 1.359375 -0.625 L 2.09375 -0.46875 L 2.078125 0 Z M 1.734375 -2.25 L 1.734375 -2.890625 C 1.890625 -2.878906 2.097656 -2.867188 2.359375 -2.859375 C 2.628906 -2.859375 2.960938 -2.859375 3.359375 -2.859375 C 3.734375 -2.859375 4.054688 -2.859375 4.328125 -2.859375 C 4.597656 -2.867188 4.804688 -2.878906 4.953125 -2.890625 L 4.953125 -2.25 C 4.679688 -2.257812 4.410156 -2.265625 4.140625 -2.265625 C 3.867188 -2.265625 3.609375 -2.265625 3.359375 -2.265625 C 3.109375 -2.265625 2.851562 -2.265625 2.59375 -2.265625 C 2.332031 -2.265625 2.046875 -2.257812 1.734375 -2.25 Z M 1.734375 -2.25 "/></g></g></g><g fill="#e4ad44" fill-opacity="1"><g transform="translate(219.680734, 273.352098)"><g><path d="M 4.234375 0.109375 C 3.535156 0.109375 2.910156 -0.0390625 2.359375 -0.34375 C 1.816406 -0.65625 1.390625 -1.085938 1.078125 -1.640625 C 0.773438 -2.191406 0.625 -2.820312 0.625 -3.53125 C 0.625 -4.25 0.78125 -4.882812 1.09375 -5.4375 C 1.40625 -6 1.835938 -6.4375 2.390625 -6.75 C 2.941406 -7.070312 3.566406 -7.234375 4.265625 -7.234375 C 4.941406 -7.234375 5.539062 -7.078125 6.0625 -6.765625 C 6.582031 -6.460938 6.988281 -6.039062 7.28125 -5.5 C 7.570312 -4.957031 7.71875 -4.332031 7.71875 -3.625 C 7.71875 -3.082031 7.625 -2.582031 7.4375 -2.125 C 7.257812 -1.675781 7.003906 -1.28125 6.671875 -0.9375 C 6.347656 -0.601562 5.976562 -0.34375 5.5625 -0.15625 C 5.144531 0.0195312 4.703125 0.109375 4.234375 0.109375 Z M 4.34375 -0.546875 C 4.789062 -0.546875 5.171875 -0.660156 5.484375 -0.890625 C 5.804688 -1.117188 6.054688 -1.441406 6.234375 -1.859375 C 6.410156 -2.273438 6.5 -2.765625 6.5 -3.328125 C 6.5 -3.984375 6.394531 -4.554688 6.1875 -5.046875 C 5.988281 -5.546875 5.710938 -5.929688 5.359375 -6.203125 C 5.003906 -6.484375 4.59375 -6.625 4.125 -6.625 C 3.425781 -6.625 2.875 -6.367188 2.46875 -5.859375 C 2.070312 -5.347656 1.875 -4.648438 1.875 -3.765625 C 1.875 -3.128906 1.976562 -2.570312 2.1875 -2.09375 C 2.40625 -1.613281 2.695312 -1.234375 3.0625 -0.953125 C 3.4375 -0.679688 3.863281 -0.546875 4.34375 -0.546875 Z M 4.34375 -0.546875 "/></g></g></g><g fill="#e4ad44" fill-opacity="1"><g transform="translate(231.787512, 273.352098)"><g/></g></g><g fill="#e4ad44" fill-opacity="1"><g transform="translate(237.891163, 273.352098)"><g><path d="M 4.46875 0.109375 C 3.757812 0.109375 3.113281 -0.0234375 2.53125 -0.296875 C 1.957031 -0.566406 1.492188 -0.96875 1.140625 -1.5 C 0.796875 -2.039062 0.625 -2.710938 0.625 -3.515625 C 0.625 -4.023438 0.710938 -4.503906 0.890625 -4.953125 C 1.078125 -5.398438 1.34375 -5.796875 1.6875 -6.140625 C 2.03125 -6.484375 2.445312 -6.75 2.9375 -6.9375 C 3.4375 -7.132812 4 -7.234375 4.625 -7.234375 C 4.957031 -7.234375 5.3125 -7.203125 5.6875 -7.140625 C 6.0625 -7.078125 6.394531 -6.984375 6.6875 -6.859375 L 6.765625 -5.203125 L 6.21875 -5.15625 L 5.859375 -6.296875 C 5.703125 -6.410156 5.5 -6.492188 5.25 -6.546875 C 5 -6.597656 4.753906 -6.625 4.515625 -6.625 C 3.910156 -6.625 3.414062 -6.488281 3.03125 -6.21875 C 2.644531 -5.957031 2.359375 -5.609375 2.171875 -5.171875 C 1.992188 -4.734375 1.90625 -4.253906 1.90625 -3.734375 C 1.90625 -3.046875 2.023438 -2.460938 2.265625 -1.984375 C 2.503906 -1.503906 2.828125 -1.140625 3.234375 -0.890625 C 3.640625 -0.648438 4.09375 -0.53125 4.59375 -0.53125 C 4.84375 -0.53125 5.070312 -0.554688 5.28125 -0.609375 C 5.5 -0.671875 5.707031 -0.757812 5.90625 -0.875 L 6.4375 -2.015625 L 7 -1.953125 L 6.65625 -0.421875 C 6.375 -0.285156 6.039062 -0.160156 5.65625 -0.046875 C 5.28125 0.0546875 4.882812 0.109375 4.46875 0.109375 Z M 4.46875 0.109375 "/></g></g></g><g fill="#e4ad44" fill-opacity="1"><g transform="translate(249.001463, 273.352098)"><g><path d="M 0.5625 -7.125 L 3.140625 -7.125 L 3.171875 -6.671875 L 2.421875 -6.484375 C 2.421875 -6.453125 2.414062 -6.378906 2.40625 -6.265625 C 2.394531 -6.148438 2.382812 -5.972656 2.375 -5.734375 C 2.375 -5.492188 2.375 -5.148438 2.375 -4.703125 L 2.375 -2.828125 C 2.382812 -2.316406 2.46875 -1.90625 2.625 -1.59375 C 2.78125 -1.28125 3 -1.050781 3.28125 -0.90625 C 3.570312 -0.757812 3.898438 -0.6875 4.265625 -0.6875 C 4.617188 -0.6875 4.925781 -0.757812 5.1875 -0.90625 C 5.457031 -1.050781 5.664062 -1.285156 5.8125 -1.609375 C 5.957031 -1.941406 6.03125 -2.378906 6.03125 -2.921875 L 6.03125 -4.484375 C 6.03125 -4.847656 6.023438 -5.164062 6.015625 -5.4375 C 6.003906 -5.71875 5.992188 -5.945312 5.984375 -6.125 C 5.972656 -6.3125 5.960938 -6.429688 5.953125 -6.484375 L 5.09375 -6.671875 L 5.140625 -7.125 L 7.5 -7.125 L 7.53125 -6.671875 L 6.796875 -6.484375 C 6.796875 -6.460938 6.789062 -6.390625 6.78125 -6.265625 C 6.769531 -6.140625 6.757812 -5.929688 6.75 -5.640625 C 6.75 -5.359375 6.75 -4.972656 6.75 -4.484375 L 6.75 -2.859375 C 6.75 -2.171875 6.632812 -1.609375 6.40625 -1.171875 C 6.1875 -0.734375 5.875 -0.410156 5.46875 -0.203125 C 5.070312 0.00390625 4.628906 0.109375 4.140625 0.109375 C 3.253906 0.109375 2.5625 -0.128906 2.0625 -0.609375 C 1.570312 -1.097656 1.328125 -1.789062 1.328125 -2.6875 L 1.328125 -4.703125 C 1.328125 -5.148438 1.320312 -5.492188 1.3125 -5.734375 C 1.300781 -5.984375 1.289062 -6.164062 1.28125 -6.28125 C 1.28125 -6.394531 1.28125 -6.460938 1.28125 -6.484375 L 0.53125 -6.671875 Z M 0.5625 -7.125 "/></g></g></g><g fill="#e4ad44" fill-opacity="1"><g transform="translate(260.840895, 273.352098)"><g><path d="M 2.734375 0.109375 C 2.378906 0.109375 2.015625 0.0664062 1.640625 -0.015625 C 1.265625 -0.109375 0.957031 -0.222656 0.71875 -0.359375 L 0.65625 -1.9375 L 1.171875 -1.984375 L 1.515625 -0.90625 C 1.710938 -0.769531 1.929688 -0.664062 2.171875 -0.59375 C 2.410156 -0.53125 2.660156 -0.5 2.921875 -0.5 C 3.316406 -0.5 3.632812 -0.59375 3.875 -0.78125 C 4.113281 -0.976562 4.234375 -1.242188 4.234375 -1.578125 C 4.234375 -1.859375 4.148438 -2.09375 3.984375 -2.28125 C 3.816406 -2.476562 3.597656 -2.644531 3.328125 -2.78125 C 3.054688 -2.925781 2.765625 -3.066406 2.453125 -3.203125 C 2.148438 -3.335938 1.863281 -3.488281 1.59375 -3.65625 C 1.332031 -3.832031 1.113281 -4.046875 0.9375 -4.296875 C 0.769531 -4.554688 0.6875 -4.878906 0.6875 -5.265625 C 0.6875 -5.648438 0.796875 -5.992188 1.015625 -6.296875 C 1.234375 -6.597656 1.535156 -6.832031 1.921875 -7 C 2.316406 -7.164062 2.765625 -7.25 3.265625 -7.25 C 3.472656 -7.25 3.675781 -7.238281 3.875 -7.21875 C 4.070312 -7.195312 4.253906 -7.164062 4.421875 -7.125 C 4.597656 -7.082031 4.753906 -7.03125 4.890625 -6.96875 L 4.984375 -5.453125 L 4.46875 -5.40625 L 4.125 -6.421875 C 3.863281 -6.585938 3.535156 -6.671875 3.140625 -6.671875 C 2.722656 -6.671875 2.390625 -6.566406 2.140625 -6.359375 C 1.890625 -6.160156 1.765625 -5.898438 1.765625 -5.578125 C 1.765625 -5.285156 1.851562 -5.039062 2.03125 -4.84375 C 2.207031 -4.644531 2.429688 -4.472656 2.703125 -4.328125 C 2.972656 -4.179688 3.257812 -4.039062 3.5625 -3.90625 C 3.863281 -3.769531 4.148438 -3.613281 4.421875 -3.4375 C 4.691406 -3.269531 4.914062 -3.0625 5.09375 -2.8125 C 5.269531 -2.570312 5.359375 -2.269531 5.359375 -1.90625 C 5.359375 -1.519531 5.242188 -1.171875 5.015625 -0.859375 C 4.785156 -0.554688 4.472656 -0.316406 4.078125 -0.140625 C 3.691406 0.0234375 3.242188 0.109375 2.734375 0.109375 Z M 2.734375 0.109375 "/></g></g></g><g fill="#e4ad44" fill-opacity="1"><g transform="translate(270.432193, 273.352098)"><g><path d="M 6.296875 -7.171875 L 6.5625 -5.203125 L 6.03125 -5.15625 L 5.515625 -6.515625 C 5.453125 -6.535156 5.375 -6.546875 5.28125 -6.546875 C 5.195312 -6.554688 5.125 -6.5625 5.0625 -6.5625 L 4.625 -6.5625 C 4.539062 -6.5625 4.429688 -6.5625 4.296875 -6.5625 C 4.160156 -6.5625 4.035156 -6.554688 3.921875 -6.546875 C 3.921875 -6.484375 3.914062 -6.332031 3.90625 -6.09375 C 3.90625 -5.851562 3.90625 -5.570312 3.90625 -5.25 C 3.90625 -4.9375 3.90625 -4.632812 3.90625 -4.34375 L 3.90625 -2.703125 C 3.90625 -2.191406 3.910156 -1.75 3.921875 -1.375 C 3.929688 -1 3.9375 -0.75 3.9375 -0.625 L 4.96875 -0.484375 L 4.9375 0 L 1.828125 0 L 1.8125 -0.484375 L 2.828125 -0.625 C 2.828125 -0.75 2.832031 -1 2.84375 -1.375 C 2.851562 -1.75 2.859375 -2.191406 2.859375 -2.703125 L 2.859375 -4.34375 C 2.859375 -4.632812 2.859375 -4.9375 2.859375 -5.25 C 2.859375 -5.570312 2.859375 -5.851562 2.859375 -6.09375 C 2.859375 -6.332031 2.851562 -6.484375 2.84375 -6.546875 C 2.738281 -6.554688 2.613281 -6.5625 2.46875 -6.5625 C 2.332031 -6.5625 2.226562 -6.5625 2.15625 -6.5625 L 1.671875 -6.5625 C 1.609375 -6.5625 1.535156 -6.554688 1.453125 -6.546875 C 1.378906 -6.546875 1.304688 -6.535156 1.234375 -6.515625 L 0.734375 -5.140625 L 0.1875 -5.203125 L 0.46875 -7.171875 C 0.550781 -7.171875 0.644531 -7.164062 0.75 -7.15625 C 0.851562 -7.15625 0.953125 -7.148438 1.046875 -7.140625 C 1.148438 -7.128906 1.25 -7.125 1.34375 -7.125 C 1.445312 -7.125 1.546875 -7.125 1.640625 -7.125 L 5.109375 -7.125 C 5.203125 -7.125 5.296875 -7.125 5.390625 -7.125 C 5.492188 -7.125 5.59375 -7.128906 5.6875 -7.140625 C 5.789062 -7.148438 5.890625 -7.15625 5.984375 -7.15625 C 6.085938 -7.164062 6.191406 -7.171875 6.296875 -7.171875 Z M 6.296875 -7.171875 "/></g></g></g><g fill="#e4ad44" fill-opacity="1"><g transform="translate(280.971353, 273.352098)"><g><path d="M 4.234375 0.109375 C 3.535156 0.109375 2.910156 -0.0390625 2.359375 -0.34375 C 1.816406 -0.65625 1.390625 -1.085938 1.078125 -1.640625 C 0.773438 -2.191406 0.625 -2.820312 0.625 -3.53125 C 0.625 -4.25 0.78125 -4.882812 1.09375 -5.4375 C 1.40625 -6 1.835938 -6.4375 2.390625 -6.75 C 2.941406 -7.070312 3.566406 -7.234375 4.265625 -7.234375 C 4.941406 -7.234375 5.539062 -7.078125 6.0625 -6.765625 C 6.582031 -6.460938 6.988281 -6.039062 7.28125 -5.5 C 7.570312 -4.957031 7.71875 -4.332031 7.71875 -3.625 C 7.71875 -3.082031 7.625 -2.582031 7.4375 -2.125 C 7.257812 -1.675781 7.003906 -1.28125 6.671875 -0.9375 C 6.347656 -0.601562 5.976562 -0.34375 5.5625 -0.15625 C 5.144531 0.0195312 4.703125 0.109375 4.234375 0.109375 Z M 4.34375 -0.546875 C 4.789062 -0.546875 5.171875 -0.660156 5.484375 -0.890625 C 5.804688 -1.117188 6.054688 -1.441406 6.234375 -1.859375 C 6.410156 -2.273438 6.5 -2.765625 6.5 -3.328125 C 6.5 -3.984375 6.394531 -4.554688 6.1875 -5.046875 C 5.988281 -5.546875 5.710938 -5.929688 5.359375 -6.203125 C 5.003906 -6.484375 4.59375 -6.625 4.125 -6.625 C 3.425781 -6.625 2.875 -6.367188 2.46875 -5.859375 C 2.070312 -5.347656 1.875 -4.648438 1.875 -3.765625 C 1.875 -3.128906 1.976562 -2.570312 2.1875 -2.09375 C 2.40625 -1.613281 2.695312 -1.234375 3.0625 -0.953125 C 3.4375 -0.679688 3.863281 -0.546875 4.34375 -0.546875 Z M 4.34375 -0.546875 "/></g></g></g><g fill="#e4ad44" fill-opacity="1"><g transform="translate(293.078131, 273.352098)"><g><path d="M 0.6875 -7.125 L 2.78125 -7.125 L 5.328125 -1.3125 L 5.109375 -1.3125 L 7.609375 -7.125 L 9.578125 -7.125 L 9.625 -6.671875 L 8.859375 -6.515625 C 8.859375 -6.398438 8.859375 -6.1875 8.859375 -5.875 C 8.859375 -5.5625 8.863281 -5.226562 8.875 -4.875 L 8.921875 -2.640625 C 8.929688 -2.242188 8.941406 -1.910156 8.953125 -1.640625 C 8.960938 -1.367188 8.96875 -1.148438 8.96875 -0.984375 C 8.976562 -0.828125 8.988281 -0.707031 9 -0.625 L 9.734375 -0.46875 L 9.71875 0 L 7.140625 0 L 7.109375 -0.46875 L 7.84375 -0.625 C 7.851562 -0.71875 7.859375 -0.828125 7.859375 -0.953125 C 7.859375 -1.085938 7.859375 -1.269531 7.859375 -1.5 C 7.859375 -1.738281 7.851562 -2.0625 7.84375 -2.46875 L 7.828125 -6.78125 L 8.140625 -6.78125 L 5.203125 0.03125 L 4.765625 0.03125 L 1.765625 -6.796875 L 2.078125 -6.796875 L 2.09375 -2.65625 C 2.09375 -1.988281 2.09375 -1.5 2.09375 -1.1875 C 2.09375 -0.882812 2.097656 -0.695312 2.109375 -0.625 L 2.9375 -0.46875 L 2.90625 0 L 0.515625 0 L 0.484375 -0.46875 L 1.3125 -0.625 C 1.320312 -0.6875 1.328125 -0.789062 1.328125 -0.9375 C 1.335938 -1.09375 1.34375 -1.296875 1.34375 -1.546875 C 1.351562 -1.804688 1.359375 -2.113281 1.359375 -2.46875 L 1.390625 -4.875 C 1.398438 -5.226562 1.398438 -5.550781 1.390625 -5.84375 C 1.390625 -6.144531 1.390625 -6.363281 1.390625 -6.5 L 0.65625 -6.671875 Z M 0.6875 -7.125 "/></g></g></g><g fill="#e4ad44" fill-opacity="1"><g transform="translate(307.17785, 273.352098)"><g><path d="M 5.90625 0.0625 C 5.664062 0.0390625 5.453125 0.0234375 5.265625 0.015625 C 5.085938 0.00390625 4.921875 0 4.765625 0 L 0.59375 0 L 0.5625 -0.46875 L 1.3125 -0.625 C 1.320312 -0.664062 1.328125 -0.757812 1.328125 -0.90625 C 1.335938 -1.050781 1.34375 -1.25 1.34375 -1.5 C 1.351562 -1.75 1.359375 -2.054688 1.359375 -2.421875 L 1.359375 -4.703125 C 1.359375 -5.066406 1.351562 -5.375 1.34375 -5.625 C 1.34375 -5.882812 1.335938 -6.085938 1.328125 -6.234375 C 1.328125 -6.378906 1.320312 -6.46875 1.3125 -6.5 L 0.5625 -6.671875 L 0.59375 -7.125 L 4.5 -7.125 C 4.613281 -7.125 4.734375 -7.125 4.859375 -7.125 C 4.984375 -7.125 5.117188 -7.128906 5.265625 -7.140625 C 5.410156 -7.160156 5.554688 -7.171875 5.703125 -7.171875 L 5.953125 -5.578125 L 5.40625 -5.484375 L 5 -6.515625 C 4.9375 -6.523438 4.863281 -6.53125 4.78125 -6.53125 C 4.707031 -6.539062 4.625 -6.546875 4.53125 -6.546875 L 3.15625 -6.546875 C 3 -6.546875 2.863281 -6.539062 2.75 -6.53125 C 2.632812 -6.53125 2.519531 -6.523438 2.40625 -6.515625 C 2.40625 -6.484375 2.398438 -6.390625 2.390625 -6.234375 C 2.390625 -6.085938 2.382812 -5.914062 2.375 -5.71875 C 2.375 -5.519531 2.375 -5.328125 2.375 -5.140625 L 2.375 -1.859375 C 2.375 -1.691406 2.375 -1.523438 2.375 -1.359375 C 2.382812 -1.203125 2.390625 -1.054688 2.390625 -0.921875 C 2.398438 -0.796875 2.40625 -0.707031 2.40625 -0.65625 C 2.53125 -0.644531 2.648438 -0.632812 2.765625 -0.625 C 2.890625 -0.625 3.03125 -0.625 3.1875 -0.625 L 4.359375 -0.625 C 4.535156 -0.625 4.679688 -0.625 4.796875 -0.625 C 4.910156 -0.625 5 -0.628906 5.0625 -0.640625 C 5.125 -0.648438 5.175781 -0.660156 5.21875 -0.671875 L 5.859375 -1.828125 L 6.40625 -1.71875 Z M 4.5625 -2.484375 L 4.40625 -3.3125 C 4.363281 -3.332031 4.296875 -3.34375 4.203125 -3.34375 C 4.109375 -3.351562 3.988281 -3.359375 3.84375 -3.359375 L 2.921875 -3.359375 C 2.816406 -3.359375 2.703125 -3.351562 2.578125 -3.34375 C 2.453125 -3.34375 2.328125 -3.335938 2.203125 -3.328125 L 2.203125 -4 C 2.328125 -3.988281 2.453125 -3.976562 2.578125 -3.96875 C 2.703125 -3.96875 2.816406 -3.96875 2.921875 -3.96875 L 3.84375 -3.96875 C 3.988281 -3.96875 4.109375 -3.96875 4.203125 -3.96875 C 4.296875 -3.976562 4.363281 -3.992188 4.40625 -4.015625 L 4.5625 -4.84375 L 5.078125 -4.84375 L 5.078125 -2.484375 Z M 4.5625 -2.484375 "/></g></g></g><g fill="#e4ad44" fill-opacity="1"><g transform="translate(317.704858, 273.352098)"><g><path d="M 0.625 0 L 0.609375 -0.46875 L 1.34375 -0.640625 C 1.34375 -0.703125 1.34375 -0.789062 1.34375 -0.90625 C 1.351562 -1.019531 1.359375 -1.15625 1.359375 -1.3125 C 1.359375 -1.476562 1.359375 -1.65625 1.359375 -1.84375 C 1.367188 -2.039062 1.375 -2.234375 1.375 -2.421875 L 1.375 -4.703125 C 1.375 -5.078125 1.367188 -5.390625 1.359375 -5.640625 C 1.359375 -5.898438 1.351562 -6.097656 1.34375 -6.234375 C 1.34375 -6.378906 1.335938 -6.46875 1.328125 -6.5 L 0.578125 -6.671875 L 0.609375 -7.125 L 3.265625 -7.125 C 4.023438 -7.125 4.601562 -6.976562 5 -6.6875 C 5.40625 -6.394531 5.609375 -5.957031 5.609375 -5.375 C 5.609375 -4.976562 5.5 -4.625 5.28125 -4.3125 C 5.0625 -4 4.753906 -3.753906 4.359375 -3.578125 C 3.972656 -3.398438 3.53125 -3.3125 3.03125 -3.3125 L 2.25 -3.3125 L 2.25 -3.859375 L 2.9375 -3.859375 C 3.4375 -3.859375 3.828125 -3.984375 4.109375 -4.234375 C 4.390625 -4.484375 4.53125 -4.832031 4.53125 -5.28125 C 4.53125 -5.707031 4.40625 -6.03125 4.15625 -6.25 C 3.914062 -6.476562 3.570312 -6.59375 3.125 -6.59375 L 2.421875 -6.59375 C 2.410156 -6.582031 2.398438 -6.550781 2.390625 -6.5 C 2.390625 -6.445312 2.390625 -6.363281 2.390625 -6.25 C 2.390625 -6.132812 2.390625 -5.96875 2.390625 -5.75 C 2.390625 -5.53125 2.390625 -5.238281 2.390625 -4.875 L 2.390625 -2.421875 C 2.390625 -2.066406 2.390625 -1.769531 2.390625 -1.53125 C 2.398438 -1.300781 2.410156 -1.113281 2.421875 -0.96875 C 2.429688 -0.832031 2.441406 -0.722656 2.453125 -0.640625 L 3.171875 -0.46875 L 3.140625 0 Z M 6.390625 0.125 C 6.035156 0.125 5.71875 0.0546875 5.4375 -0.078125 C 5.164062 -0.210938 4.898438 -0.4375 4.640625 -0.75 C 4.390625 -1.070312 4.109375 -1.492188 3.796875 -2.015625 L 2.96875 -3.515625 L 3.890625 -3.734375 L 5.203125 -1.796875 C 5.421875 -1.460938 5.617188 -1.195312 5.796875 -1 C 5.984375 -0.800781 6.164062 -0.648438 6.34375 -0.546875 C 6.53125 -0.453125 6.726562 -0.390625 6.9375 -0.359375 L 6.921875 0.078125 C 6.835938 0.0859375 6.75 0.0976562 6.65625 0.109375 C 6.5625 0.117188 6.472656 0.125 6.390625 0.125 Z M 6.390625 0.125 "/></g></g></g><g fill="#e4ad44" fill-opacity="1"><g transform="translate(328.365539, 273.352098)"><g/></g></g><g fill="#e4ad44" fill-opacity="1"><g transform="translate(334.469189, 273.352098)"><g><path d="M 0.03125 0 L 0.015625 -0.46875 L 0.609375 -0.625 L 3.109375 -6.921875 L 3.8125 -7.34375 L 6.46875 -0.625 L 7.0625 -0.46875 L 7.03125 0 L 4.578125 0 L 4.5625 -0.46875 L 5.296875 -0.625 L 4.578125 -2.421875 L 4.453125 -2.8125 L 3.125 -6.109375 L 3.40625 -6.265625 L 2.140625 -2.8125 L 2 -2.4375 L 1.359375 -0.625 L 2.09375 -0.46875 L 2.078125 0 Z M 1.734375 -2.25 L 1.734375 -2.890625 C 1.890625 -2.878906 2.097656 -2.867188 2.359375 -2.859375 C 2.628906 -2.859375 2.960938 -2.859375 3.359375 -2.859375 C 3.734375 -2.859375 4.054688 -2.859375 4.328125 -2.859375 C 4.597656 -2.867188 4.804688 -2.878906 4.953125 -2.890625 L 4.953125 -2.25 C 4.679688 -2.257812 4.410156 -2.265625 4.140625 -2.265625 C 3.867188 -2.265625 3.609375 -2.265625 3.359375 -2.265625 C 3.109375 -2.265625 2.851562 -2.265625 2.59375 -2.265625 C 2.332031 -2.265625 2.046875 -2.257812 1.734375 -2.25 Z M 1.734375 -2.25 "/></g></g></g><g fill="#e4ad44" fill-opacity="1"><g transform="translate(345.312151, 273.352098)"><g><path d="M 0.640625 0 L 0.609375 -0.46875 L 1.3125 -0.625 C 1.332031 -0.664062 1.34375 -0.738281 1.34375 -0.84375 C 1.34375 -0.957031 1.34375 -1.132812 1.34375 -1.375 C 1.351562 -1.613281 1.359375 -1.941406 1.359375 -2.359375 L 1.375 -4.828125 C 1.375 -5.222656 1.367188 -5.535156 1.359375 -5.765625 C 1.347656 -6.003906 1.34375 -6.179688 1.34375 -6.296875 C 1.34375 -6.410156 1.335938 -6.472656 1.328125 -6.484375 L 0.578125 -6.671875 L 0.609375 -7.125 L 3.1875 -7.125 C 3.988281 -7.125 4.613281 -6.945312 5.0625 -6.59375 C 5.507812 -6.25 5.734375 -5.742188 5.734375 -5.078125 C 5.734375 -4.617188 5.617188 -4.222656 5.390625 -3.890625 C 5.160156 -3.566406 4.847656 -3.3125 4.453125 -3.125 C 4.066406 -2.945312 3.632812 -2.859375 3.15625 -2.859375 C 2.96875 -2.859375 2.796875 -2.867188 2.640625 -2.890625 C 2.492188 -2.910156 2.347656 -2.929688 2.203125 -2.953125 L 2.203125 -3.609375 C 2.390625 -3.546875 2.550781 -3.503906 2.6875 -3.484375 C 2.832031 -3.460938 2.976562 -3.453125 3.125 -3.453125 C 3.601562 -3.453125 3.972656 -3.570312 4.234375 -3.8125 C 4.503906 -4.050781 4.640625 -4.421875 4.640625 -4.921875 C 4.640625 -5.492188 4.488281 -5.914062 4.1875 -6.1875 C 3.882812 -6.457031 3.507812 -6.59375 3.0625 -6.59375 L 2.421875 -6.59375 C 2.421875 -6.539062 2.414062 -6.425781 2.40625 -6.25 C 2.40625 -6.082031 2.398438 -5.875 2.390625 -5.625 C 2.390625 -5.375 2.390625 -5.109375 2.390625 -4.828125 L 2.40625 -2.359375 C 2.40625 -1.941406 2.40625 -1.613281 2.40625 -1.375 C 2.414062 -1.132812 2.425781 -0.960938 2.4375 -0.859375 C 2.445312 -0.753906 2.453125 -0.679688 2.453125 -0.640625 L 3.46875 -0.484375 L 3.421875 0 Z M 0.640625 0 "/></g></g></g><g fill="#e4ad44" fill-opacity="1"><g transform="translate(355.328772, 273.352098)"><g><path d="M 0.640625 0 L 0.609375 -0.46875 L 1.3125 -0.625 C 1.332031 -0.664062 1.34375 -0.738281 1.34375 -0.84375 C 1.34375 -0.957031 1.34375 -1.132812 1.34375 -1.375 C 1.351562 -1.613281 1.359375 -1.941406 1.359375 -2.359375 L 1.375 -4.828125 C 1.375 -5.222656 1.367188 -5.535156 1.359375 -5.765625 C 1.347656 -6.003906 1.34375 -6.179688 1.34375 -6.296875 C 1.34375 -6.410156 1.335938 -6.472656 1.328125 -6.484375 L 0.578125 -6.671875 L 0.609375 -7.125 L 3.1875 -7.125 C 3.988281 -7.125 4.613281 -6.945312 5.0625 -6.59375 C 5.507812 -6.25 5.734375 -5.742188 5.734375 -5.078125 C 5.734375 -4.617188 5.617188 -4.222656 5.390625 -3.890625 C 5.160156 -3.566406 4.847656 -3.3125 4.453125 -3.125 C 4.066406 -2.945312 3.632812 -2.859375 3.15625 -2.859375 C 2.96875 -2.859375 2.796875 -2.867188 2.640625 -2.890625 C 2.492188 -2.910156 2.347656 -2.929688 2.203125 -2.953125 L 2.203125 -3.609375 C 2.390625 -3.546875 2.550781 -3.503906 2.6875 -3.484375 C 2.832031 -3.460938 2.976562 -3.453125 3.125 -3.453125 C 3.601562 -3.453125 3.972656 -3.570312 4.234375 -3.8125 C 4.503906 -4.050781 4.640625 -4.421875 4.640625 -4.921875 C 4.640625 -5.492188 4.488281 -5.914062 4.1875 -6.1875 C 3.882812 -6.457031 3.507812 -6.59375 3.0625 -6.59375 L 2.421875 -6.59375 C 2.421875 -6.539062 2.414062 -6.425781 2.40625 -6.25 C 2.40625 -6.082031 2.398438 -5.875 2.390625 -5.625 C 2.390625 -5.375 2.390625 -5.109375 2.390625 -4.828125 L 2.40625 -2.359375 C 2.40625 -1.941406 2.40625 -1.613281 2.40625 -1.375 C 2.414062 -1.132812 2.425781 -0.960938 2.4375 -0.859375 C 2.445312 -0.753906 2.453125 -0.679688 2.453125 -0.640625 L 3.46875 -0.484375 L 3.421875 0 Z M 0.640625 0 "/></g></g></g><g fill="#e4ad44" fill-opacity="1"><g transform="translate(365.345392, 273.352098)"><g><path d="M 0.625 0 L 0.609375 -0.46875 L 1.34375 -0.640625 C 1.34375 -0.703125 1.34375 -0.789062 1.34375 -0.90625 C 1.351562 -1.019531 1.359375 -1.15625 1.359375 -1.3125 C 1.359375 -1.476562 1.359375 -1.65625 1.359375 -1.84375 C 1.367188 -2.039062 1.375 -2.234375 1.375 -2.421875 L 1.375 -4.703125 C 1.375 -5.078125 1.367188 -5.390625 1.359375 -5.640625 C 1.359375 -5.898438 1.351562 -6.097656 1.34375 -6.234375 C 1.34375 -6.378906 1.335938 -6.46875 1.328125 -6.5 L 0.578125 -6.671875 L 0.609375 -7.125 L 3.265625 -7.125 C 4.023438 -7.125 4.601562 -6.976562 5 -6.6875 C 5.40625 -6.394531 5.609375 -5.957031 5.609375 -5.375 C 5.609375 -4.976562 5.5 -4.625 5.28125 -4.3125 C 5.0625 -4 4.753906 -3.753906 4.359375 -3.578125 C 3.972656 -3.398438 3.53125 -3.3125 3.03125 -3.3125 L 2.25 -3.3125 L 2.25 -3.859375 L 2.9375 -3.859375 C 3.4375 -3.859375 3.828125 -3.984375 4.109375 -4.234375 C 4.390625 -4.484375 4.53125 -4.832031 4.53125 -5.28125 C 4.53125 -5.707031 4.40625 -6.03125 4.15625 -6.25 C 3.914062 -6.476562 3.570312 -6.59375 3.125 -6.59375 L 2.421875 -6.59375 C 2.410156 -6.582031 2.398438 -6.550781 2.390625 -6.5 C 2.390625 -6.445312 2.390625 -6.363281 2.390625 -6.25 C 2.390625 -6.132812 2.390625 -5.96875 2.390625 -5.75 C 2.390625 -5.53125 2.390625 -5.238281 2.390625 -4.875 L 2.390625 -2.421875 C 2.390625 -2.066406 2.390625 -1.769531 2.390625 -1.53125 C 2.398438 -1.300781 2.410156 -1.113281 2.421875 -0.96875 C 2.429688 -0.832031 2.441406 -0.722656 2.453125 -0.640625 L 3.171875 -0.46875 L 3.140625 0 Z M 6.390625 0.125 C 6.035156 0.125 5.71875 0.0546875 5.4375 -0.078125 C 5.164062 -0.210938 4.898438 -0.4375 4.640625 -0.75 C 4.390625 -1.070312 4.109375 -1.492188 3.796875 -2.015625 L 2.96875 -3.515625 L 3.890625 -3.734375 L 5.203125 -1.796875 C 5.421875 -1.460938 5.617188 -1.195312 5.796875 -1 C 5.984375 -0.800781 6.164062 -0.648438 6.34375 -0.546875 C 6.53125 -0.453125 6.726562 -0.390625 6.9375 -0.359375 L 6.921875 0.078125 C 6.835938 0.0859375 6.75 0.0976562 6.65625 0.109375 C 6.5625 0.117188 6.472656 0.125 6.390625 0.125 Z M 6.390625 0.125 "/></g></g></g><g fill="#e4ad44" fill-opacity="1"><g transform="translate(376.006057, 273.352098)"><g><path d="M 4.234375 0.109375 C 3.535156 0.109375 2.910156 -0.0390625 2.359375 -0.34375 C 1.816406 -0.65625 1.390625 -1.085938 1.078125 -1.640625 C 0.773438 -2.191406 0.625 -2.820312 0.625 -3.53125 C 0.625 -4.25 0.78125 -4.882812 1.09375 -5.4375 C 1.40625 -6 1.835938 -6.4375 2.390625 -6.75 C 2.941406 -7.070312 3.566406 -7.234375 4.265625 -7.234375 C 4.941406 -7.234375 5.539062 -7.078125 6.0625 -6.765625 C 6.582031 -6.460938 6.988281 -6.039062 7.28125 -5.5 C 7.570312 -4.957031 7.71875 -4.332031 7.71875 -3.625 C 7.71875 -3.082031 7.625 -2.582031 7.4375 -2.125 C 7.257812 -1.675781 7.003906 -1.28125 6.671875 -0.9375 C 6.347656 -0.601562 5.976562 -0.34375 5.5625 -0.15625 C 5.144531 0.0195312 4.703125 0.109375 4.234375 0.109375 Z M 4.34375 -0.546875 C 4.789062 -0.546875 5.171875 -0.660156 5.484375 -0.890625 C 5.804688 -1.117188 6.054688 -1.441406 6.234375 -1.859375 C 6.410156 -2.273438 6.5 -2.765625 6.5 -3.328125 C 6.5 -3.984375 6.394531 -4.554688 6.1875 -5.046875 C 5.988281 -5.546875 5.710938 -5.929688 5.359375 -6.203125 C 5.003906 -6.484375 4.59375 -6.625 4.125 -6.625 C 3.425781 -6.625 2.875 -6.367188 2.46875 -5.859375 C 2.070312 -5.347656 1.875 -4.648438 1.875 -3.765625 C 1.875 -3.128906 1.976562 -2.570312 2.1875 -2.09375 C 2.40625 -1.613281 2.695312 -1.234375 3.0625 -0.953125 C 3.4375 -0.679688 3.863281 -0.546875 4.34375 -0.546875 Z M 4.34375 -0.546875 "/></g></g></g><g fill="#e4ad44" fill-opacity="1"><g transform="translate(388.112819, 273.352098)"><g><path d="M 3.28125 0.03125 L 0.625 -6.5 L 0.015625 -6.671875 L 0.046875 -7.125 L 2.5625 -7.125 L 2.59375 -6.671875 L 1.84375 -6.5 L 3.9375 -1.203125 L 3.6875 -1.203125 L 5.640625 -6.5 L 4.796875 -6.671875 L 4.828125 -7.125 L 7.0625 -7.125 L 7.09375 -6.671875 L 6.484375 -6.5 L 3.796875 0.03125 Z M 3.28125 0.03125 "/></g></g></g><g fill="#e4ad44" fill-opacity="1"><g transform="translate(398.992222, 273.352098)"><g><path d="M 0.03125 0 L 0.015625 -0.46875 L 0.609375 -0.625 L 3.109375 -6.921875 L 3.8125 -7.34375 L 6.46875 -0.625 L 7.0625 -0.46875 L 7.03125 0 L 4.578125 0 L 4.5625 -0.46875 L 5.296875 -0.625 L 4.578125 -2.421875 L 4.453125 -2.8125 L 3.125 -6.109375 L 3.40625 -6.265625 L 2.140625 -2.8125 L 2 -2.4375 L 1.359375 -0.625 L 2.09375 -0.46875 L 2.078125 0 Z M 1.734375 -2.25 L 1.734375 -2.890625 C 1.890625 -2.878906 2.097656 -2.867188 2.359375 -2.859375 C 2.628906 -2.859375 2.960938 -2.859375 3.359375 -2.859375 C 3.734375 -2.859375 4.054688 -2.859375 4.328125 -2.859375 C 4.597656 -2.867188 4.804688 -2.878906 4.953125 -2.890625 L 4.953125 -2.25 C 4.679688 -2.257812 4.410156 -2.265625 4.140625 -2.265625 C 3.867188 -2.265625 3.609375 -2.265625 3.359375 -2.265625 C 3.109375 -2.265625 2.851562 -2.265625 2.59375 -2.265625 C 2.332031 -2.265625 2.046875 -2.257812 1.734375 -2.25 Z M 1.734375 -2.25 "/></g></g></g><g fill="#e4ad44" fill-opacity="1"><g transform="translate(409.835168, 273.352098)"><g><path d="M 5.671875 0.0625 C 5.554688 0.0390625 5.425781 0.0234375 5.28125 0.015625 C 5.144531 0.015625 5.007812 0.0078125 4.875 0 C 4.738281 0 4.613281 0 4.5 0 L 0.609375 0 L 0.578125 -0.46875 L 1.328125 -0.625 C 1.335938 -0.664062 1.34375 -0.757812 1.34375 -0.90625 C 1.351562 -1.050781 1.359375 -1.25 1.359375 -1.5 C 1.367188 -1.757812 1.375 -2.066406 1.375 -2.421875 L 1.375 -4.703125 C 1.375 -5.066406 1.375 -5.375 1.375 -5.625 C 1.375 -5.875 1.367188 -6.070312 1.359375 -6.21875 C 1.347656 -6.363281 1.335938 -6.453125 1.328125 -6.484375 L 0.578125 -6.671875 L 0.609375 -7.125 L 3.46875 -7.125 L 3.5 -6.640625 L 2.484375 -6.484375 C 2.472656 -6.460938 2.460938 -6.382812 2.453125 -6.25 C 2.441406 -6.113281 2.429688 -5.914062 2.421875 -5.65625 C 2.421875 -5.40625 2.421875 -5.085938 2.421875 -4.703125 L 2.421875 -2.421875 C 2.421875 -1.992188 2.421875 -1.625 2.421875 -1.3125 C 2.429688 -1 2.441406 -0.800781 2.453125 -0.71875 C 2.566406 -0.695312 2.679688 -0.6875 2.796875 -0.6875 C 2.910156 -0.6875 3.050781 -0.6875 3.21875 -0.6875 L 4.125 -0.6875 C 4.3125 -0.6875 4.46875 -0.6875 4.59375 -0.6875 C 4.726562 -0.695312 4.859375 -0.710938 4.984375 -0.734375 L 5.625 -1.921875 L 6.171875 -1.796875 Z M 5.671875 0.0625 "/></g></g></g><g fill="#e4ad44" fill-opacity="1"><g transform="translate(419.815316, 273.352098)"><g/></g></g><g fill="#e4ad44" fill-opacity="1"><g transform="translate(425.918951, 273.352098)"><g><path d="M 2.734375 0.109375 C 2.378906 0.109375 2.015625 0.0664062 1.640625 -0.015625 C 1.265625 -0.109375 0.957031 -0.222656 0.71875 -0.359375 L 0.65625 -1.9375 L 1.171875 -1.984375 L 1.515625 -0.90625 C 1.710938 -0.769531 1.929688 -0.664062 2.171875 -0.59375 C 2.410156 -0.53125 2.660156 -0.5 2.921875 -0.5 C 3.316406 -0.5 3.632812 -0.59375 3.875 -0.78125 C 4.113281 -0.976562 4.234375 -1.242188 4.234375 -1.578125 C 4.234375 -1.859375 4.148438 -2.09375 3.984375 -2.28125 C 3.816406 -2.476562 3.597656 -2.644531 3.328125 -2.78125 C 3.054688 -2.925781 2.765625 -3.066406 2.453125 -3.203125 C 2.148438 -3.335938 1.863281 -3.488281 1.59375 -3.65625 C 1.332031 -3.832031 1.113281 -4.046875 0.9375 -4.296875 C 0.769531 -4.554688 0.6875 -4.878906 0.6875 -5.265625 C 0.6875 -5.648438 0.796875 -5.992188 1.015625 -6.296875 C 1.234375 -6.597656 1.535156 -6.832031 1.921875 -7 C 2.316406 -7.164062 2.765625 -7.25 3.265625 -7.25 C 3.472656 -7.25 3.675781 -7.238281 3.875 -7.21875 C 4.070312 -7.195312 4.253906 -7.164062 4.421875 -7.125 C 4.597656 -7.082031 4.753906 -7.03125 4.890625 -6.96875 L 4.984375 -5.453125 L 4.46875 -5.40625 L 4.125 -6.421875 C 3.863281 -6.585938 3.535156 -6.671875 3.140625 -6.671875 C 2.722656 -6.671875 2.390625 -6.566406 2.140625 -6.359375 C 1.890625 -6.160156 1.765625 -5.898438 1.765625 -5.578125 C 1.765625 -5.285156 1.851562 -5.039062 2.03125 -4.84375 C 2.207031 -4.644531 2.429688 -4.472656 2.703125 -4.328125 C 2.972656 -4.179688 3.257812 -4.039062 3.5625 -3.90625 C 3.863281 -3.769531 4.148438 -3.613281 4.421875 -3.4375 C 4.691406 -3.269531 4.914062 -3.0625 5.09375 -2.8125 C 5.269531 -2.570312 5.359375 -2.269531 5.359375 -1.90625 C 5.359375 -1.519531 5.242188 -1.171875 5.015625 -0.859375 C 4.785156 -0.554688 4.472656 -0.316406 4.078125 -0.140625 C 3.691406 0.0234375 3.242188 0.109375 2.734375 0.109375 Z M 2.734375 0.109375 "/></g></g></g><g fill="#e4ad44" fill-opacity="1"><g transform="translate(435.510233, 273.352098)"><g><path d="M 5.96875 -6.5 L 3.484375 -2.640625 L 3.796875 -3.46875 L 3.796875 -2.3125 C 3.796875 -2.007812 3.796875 -1.753906 3.796875 -1.546875 C 3.796875 -1.335938 3.796875 -1.171875 3.796875 -1.046875 C 3.804688 -0.921875 3.816406 -0.828125 3.828125 -0.765625 C 3.835938 -0.703125 3.84375 -0.65625 3.84375 -0.625 L 4.6875 -0.46875 L 4.671875 0 L 1.890625 0 L 1.859375 -0.46875 L 2.703125 -0.625 C 2.710938 -0.65625 2.722656 -0.703125 2.734375 -0.765625 C 2.742188 -0.828125 2.75 -0.921875 2.75 -1.046875 C 2.75 -1.171875 2.75 -1.335938 2.75 -1.546875 C 2.757812 -1.753906 2.765625 -2.007812 2.765625 -2.3125 L 2.765625 -3.46875 L 3.015625 -2.640625 L 0.609375 -6.5 L 0 -6.671875 L 0.03125 -7.125 L 2.53125 -7.125 L 2.578125 -6.671875 L 1.828125 -6.5 L 3.625 -3.625 L 3.453125 -3.625 L 5.15625 -6.5 L 4.3125 -6.671875 L 4.34375 -7.125 L 6.5625 -7.125 L 6.578125 -6.671875 Z M 5.96875 -6.5 "/></g></g></g><g fill="#e4ad44" fill-opacity="1"><g transform="translate(445.854944, 273.352098)"><g><path d="M 2.734375 0.109375 C 2.378906 0.109375 2.015625 0.0664062 1.640625 -0.015625 C 1.265625 -0.109375 0.957031 -0.222656 0.71875 -0.359375 L 0.65625 -1.9375 L 1.171875 -1.984375 L 1.515625 -0.90625 C 1.710938 -0.769531 1.929688 -0.664062 2.171875 -0.59375 C 2.410156 -0.53125 2.660156 -0.5 2.921875 -0.5 C 3.316406 -0.5 3.632812 -0.59375 3.875 -0.78125 C 4.113281 -0.976562 4.234375 -1.242188 4.234375 -1.578125 C 4.234375 -1.859375 4.148438 -2.09375 3.984375 -2.28125 C 3.816406 -2.476562 3.597656 -2.644531 3.328125 -2.78125 C 3.054688 -2.925781 2.765625 -3.066406 2.453125 -3.203125 C 2.148438 -3.335938 1.863281 -3.488281 1.59375 -3.65625 C 1.332031 -3.832031 1.113281 -4.046875 0.9375 -4.296875 C 0.769531 -4.554688 0.6875 -4.878906 0.6875 -5.265625 C 0.6875 -5.648438 0.796875 -5.992188 1.015625 -6.296875 C 1.234375 -6.597656 1.535156 -6.832031 1.921875 -7 C 2.316406 -7.164062 2.765625 -7.25 3.265625 -7.25 C 3.472656 -7.25 3.675781 -7.238281 3.875 -7.21875 C 4.070312 -7.195312 4.253906 -7.164062 4.421875 -7.125 C 4.597656 -7.082031 4.753906 -7.03125 4.890625 -6.96875 L 4.984375 -5.453125 L 4.46875 -5.40625 L 4.125 -6.421875 C 3.863281 -6.585938 3.535156 -6.671875 3.140625 -6.671875 C 2.722656 -6.671875 2.390625 -6.566406 2.140625 -6.359375 C 1.890625 -6.160156 1.765625 -5.898438 1.765625 -5.578125 C 1.765625 -5.285156 1.851562 -5.039062 2.03125 -4.84375 C 2.207031 -4.644531 2.429688 -4.472656 2.703125 -4.328125 C 2.972656 -4.179688 3.257812 -4.039062 3.5625 -3.90625 C 3.863281 -3.769531 4.148438 -3.613281 4.421875 -3.4375 C 4.691406 -3.269531 4.914062 -3.0625 5.09375 -2.8125 C 5.269531 -2.570312 5.359375 -2.269531 5.359375 -1.90625 C 5.359375 -1.519531 5.242188 -1.171875 5.015625 -0.859375 C 4.785156 -0.554688 4.472656 -0.316406 4.078125 -0.140625 C 3.691406 0.0234375 3.242188 0.109375 2.734375 0.109375 Z M 2.734375 0.109375 "/></g></g></g><g fill="#e4ad44" fill-opacity="1"><g transform="translate(455.446226, 273.352098)"><g><path d="M 6.296875 -7.171875 L 6.5625 -5.203125 L 6.03125 -5.15625 L 5.515625 -6.515625 C 5.453125 -6.535156 5.375 -6.546875 5.28125 -6.546875 C 5.195312 -6.554688 5.125 -6.5625 5.0625 -6.5625 L 4.625 -6.5625 C 4.539062 -6.5625 4.429688 -6.5625 4.296875 -6.5625 C 4.160156 -6.5625 4.035156 -6.554688 3.921875 -6.546875 C 3.921875 -6.484375 3.914062 -6.332031 3.90625 -6.09375 C 3.90625 -5.851562 3.90625 -5.570312 3.90625 -5.25 C 3.90625 -4.9375 3.90625 -4.632812 3.90625 -4.34375 L 3.90625 -2.703125 C 3.90625 -2.191406 3.910156 -1.75 3.921875 -1.375 C 3.929688 -1 3.9375 -0.75 3.9375 -0.625 L 4.96875 -0.484375 L 4.9375 0 L 1.828125 0 L 1.8125 -0.484375 L 2.828125 -0.625 C 2.828125 -0.75 2.832031 -1 2.84375 -1.375 C 2.851562 -1.75 2.859375 -2.191406 2.859375 -2.703125 L 2.859375 -4.34375 C 2.859375 -4.632812 2.859375 -4.9375 2.859375 -5.25 C 2.859375 -5.570312 2.859375 -5.851562 2.859375 -6.09375 C 2.859375 -6.332031 2.851562 -6.484375 2.84375 -6.546875 C 2.738281 -6.554688 2.613281 -6.5625 2.46875 -6.5625 C 2.332031 -6.5625 2.226562 -6.5625 2.15625 -6.5625 L 1.671875 -6.5625 C 1.609375 -6.5625 1.535156 -6.554688 1.453125 -6.546875 C 1.378906 -6.546875 1.304688 -6.535156 1.234375 -6.515625 L 0.734375 -5.140625 L 0.1875 -5.203125 L 0.46875 -7.171875 C 0.550781 -7.171875 0.644531 -7.164062 0.75 -7.15625 C 0.851562 -7.15625 0.953125 -7.148438 1.046875 -7.140625 C 1.148438 -7.128906 1.25 -7.125 1.34375 -7.125 C 1.445312 -7.125 1.546875 -7.125 1.640625 -7.125 L 5.109375 -7.125 C 5.203125 -7.125 5.296875 -7.125 5.390625 -7.125 C 5.492188 -7.125 5.59375 -7.128906 5.6875 -7.140625 C 5.789062 -7.148438 5.890625 -7.15625 5.984375 -7.15625 C 6.085938 -7.164062 6.191406 -7.171875 6.296875 -7.171875 Z M 6.296875 -7.171875 "/></g></g></g><g fill="#e4ad44" fill-opacity="1"><g transform="translate(465.98537, 273.352098)"><g><path d="M 5.90625 0.0625 C 5.664062 0.0390625 5.453125 0.0234375 5.265625 0.015625 C 5.085938 0.00390625 4.921875 0 4.765625 0 L 0.59375 0 L 0.5625 -0.46875 L 1.3125 -0.625 C 1.320312 -0.664062 1.328125 -0.757812 1.328125 -0.90625 C 1.335938 -1.050781 1.34375 -1.25 1.34375 -1.5 C 1.351562 -1.75 1.359375 -2.054688 1.359375 -2.421875 L 1.359375 -4.703125 C 1.359375 -5.066406 1.351562 -5.375 1.34375 -5.625 C 1.34375 -5.882812 1.335938 -6.085938 1.328125 -6.234375 C 1.328125 -6.378906 1.320312 -6.46875 1.3125 -6.5 L 0.5625 -6.671875 L 0.59375 -7.125 L 4.5 -7.125 C 4.613281 -7.125 4.734375 -7.125 4.859375 -7.125 C 4.984375 -7.125 5.117188 -7.128906 5.265625 -7.140625 C 5.410156 -7.160156 5.554688 -7.171875 5.703125 -7.171875 L 5.953125 -5.578125 L 5.40625 -5.484375 L 5 -6.515625 C 4.9375 -6.523438 4.863281 -6.53125 4.78125 -6.53125 C 4.707031 -6.539062 4.625 -6.546875 4.53125 -6.546875 L 3.15625 -6.546875 C 3 -6.546875 2.863281 -6.539062 2.75 -6.53125 C 2.632812 -6.53125 2.519531 -6.523438 2.40625 -6.515625 C 2.40625 -6.484375 2.398438 -6.390625 2.390625 -6.234375 C 2.390625 -6.085938 2.382812 -5.914062 2.375 -5.71875 C 2.375 -5.519531 2.375 -5.328125 2.375 -5.140625 L 2.375 -1.859375 C 2.375 -1.691406 2.375 -1.523438 2.375 -1.359375 C 2.382812 -1.203125 2.390625 -1.054688 2.390625 -0.921875 C 2.398438 -0.796875 2.40625 -0.707031 2.40625 -0.65625 C 2.53125 -0.644531 2.648438 -0.632812 2.765625 -0.625 C 2.890625 -0.625 3.03125 -0.625 3.1875 -0.625 L 4.359375 -0.625 C 4.535156 -0.625 4.679688 -0.625 4.796875 -0.625 C 4.910156 -0.625 5 -0.628906 5.0625 -0.640625 C 5.125 -0.648438 5.175781 -0.660156 5.21875 -0.671875 L 5.859375 -1.828125 L 6.40625 -1.71875 Z M 4.5625 -2.484375 L 4.40625 -3.3125 C 4.363281 -3.332031 4.296875 -3.34375 4.203125 -3.34375 C 4.109375 -3.351562 3.988281 -3.359375 3.84375 -3.359375 L 2.921875 -3.359375 C 2.816406 -3.359375 2.703125 -3.351562 2.578125 -3.34375 C 2.453125 -3.34375 2.328125 -3.335938 2.203125 -3.328125 L 2.203125 -4 C 2.328125 -3.988281 2.453125 -3.976562 2.578125 -3.96875 C 2.703125 -3.96875 2.816406 -3.96875 2.921875 -3.96875 L 3.84375 -3.96875 C 3.988281 -3.96875 4.109375 -3.96875 4.203125 -3.96875 C 4.296875 -3.976562 4.363281 -3.992188 4.40625 -4.015625 L 4.5625 -4.84375 L 5.078125 -4.84375 L 5.078125 -2.484375 Z M 4.5625 -2.484375 "/></g></g></g><g fill="#e4ad44" fill-opacity="1"><g transform="translate(476.512362, 273.352098)"><g><path d="M 0.6875 -7.125 L 2.78125 -7.125 L 5.328125 -1.3125 L 5.109375 -1.3125 L 7.609375 -7.125 L 9.578125 -7.125 L 9.625 -6.671875 L 8.859375 -6.515625 C 8.859375 -6.398438 8.859375 -6.1875 8.859375 -5.875 C 8.859375 -5.5625 8.863281 -5.226562 8.875 -4.875 L 8.921875 -2.640625 C 8.929688 -2.242188 8.941406 -1.910156 8.953125 -1.640625 C 8.960938 -1.367188 8.96875 -1.148438 8.96875 -0.984375 C 8.976562 -0.828125 8.988281 -0.707031 9 -0.625 L 9.734375 -0.46875 L 9.71875 0 L 7.140625 0 L 7.109375 -0.46875 L 7.84375 -0.625 C 7.851562 -0.71875 7.859375 -0.828125 7.859375 -0.953125 C 7.859375 -1.085938 7.859375 -1.269531 7.859375 -1.5 C 7.859375 -1.738281 7.851562 -2.0625 7.84375 -2.46875 L 7.828125 -6.78125 L 8.140625 -6.78125 L 5.203125 0.03125 L 4.765625 0.03125 L 1.765625 -6.796875 L 2.078125 -6.796875 L 2.09375 -2.65625 C 2.09375 -1.988281 2.09375 -1.5 2.09375 -1.1875 C 2.09375 -0.882812 2.097656 -0.695312 2.109375 -0.625 L 2.9375 -0.46875 L 2.90625 0 L 0.515625 0 L 0.484375 -0.46875 L 1.3125 -0.625 C 1.320312 -0.6875 1.328125 -0.789062 1.328125 -0.9375 C 1.335938 -1.09375 1.34375 -1.296875 1.34375 -1.546875 C 1.351562 -1.804688 1.359375 -2.113281 1.359375 -2.46875 L 1.390625 -4.875 C 1.398438 -5.226562 1.398438 -5.550781 1.390625 -5.84375 C 1.390625 -6.144531 1.390625 -6.363281 1.390625 -6.5 L 0.65625 -6.671875 Z M 0.6875 -7.125 "/></g></g></g><g fill="#e4ad44" fill-opacity="1"><g transform="translate(298.742255, 289.943737)"><g/></g></g></svg>