<svg xmlns="http://www.w3.org/2000/svg" xmlns:xlink="http://www.w3.org/1999/xlink" width="50" zoomAndPan="magnify" viewBox="0 0 37.5 37.499999" height="50" preserveAspectRatio="xMidYMid meet" version="1.0"><defs><clipPath id="9e6ef67a05"><path d="M 11 35 L 26 35 L 26 36.492188 L 11 36.492188 Z M 11 35 " clip-rule="nonzero"/></clipPath><clipPath id="0bc49ec501"><path d="M 1.882812 1.242188 L 35.617188 1.242188 L 35.617188 28.761719 L 1.882812 28.761719 Z M 1.882812 1.242188 " clip-rule="nonzero"/></clipPath></defs><path fill="#e4ad44" d="M 4.644531 17.582031 C 4.296875 17.582031 4.011719 17.867188 4.011719 18.21875 C 4.011719 18.570312 4.296875 18.855469 4.644531 18.855469 L 8.8125 18.855469 C 8.828125 19.582031 8.871094 20.308594 8.941406 21.019531 C 8.976562 21.347656 9.25 21.59375 9.570312 21.59375 C 9.59375 21.59375 9.617188 21.59375 9.636719 21.589844 C 9.984375 21.554688 10.238281 21.242188 10.203125 20.890625 C 10.132812 20.222656 10.09375 19.539062 10.078125 18.855469 L 15.164062 18.855469 C 15.511719 18.855469 15.796875 18.570312 15.796875 18.21875 C 15.796875 17.867188 15.511719 17.582031 15.164062 17.582031 L 10.078125 17.582031 C 10.144531 14.652344 10.691406 11.863281 11.636719 9.480469 L 18.117188 9.480469 L 18.117188 14.609375 C 18.117188 14.960938 18.402344 15.246094 18.75 15.246094 C 19.097656 15.246094 19.382812 14.960938 19.382812 14.609375 L 19.382812 9.480469 L 25.863281 9.480469 C 26.808594 11.863281 27.355469 14.652344 27.421875 17.582031 L 22.335938 17.582031 C 21.988281 17.582031 21.703125 17.867188 21.703125 18.21875 C 21.703125 18.570312 21.988281 18.855469 22.335938 18.855469 L 27.421875 18.855469 C 27.40625 19.539062 27.367188 20.222656 27.296875 20.890625 C 27.261719 21.242188 27.515625 21.554688 27.863281 21.589844 C 27.886719 21.59375 27.90625 21.59375 27.929688 21.59375 C 28.25 21.59375 28.523438 21.347656 28.558594 21.019531 C 28.628906 20.308594 28.671875 19.582031 28.6875 18.855469 L 32.855469 18.855469 C 33.203125 18.855469 33.488281 18.570312 33.488281 18.21875 C 33.488281 17.867188 33.203125 17.582031 32.855469 17.582031 L 28.6875 17.582031 C 28.625 14.683594 28.109375 11.90625 27.214844 9.480469 L 29.386719 9.480469 C 29.734375 9.480469 30.019531 9.195312 30.019531 8.84375 C 30.019531 8.492188 29.734375 8.207031 29.386719 8.207031 L 26.699219 8.207031 C 26.1875 7.070312 25.585938 6.027344 24.902344 5.113281 C 24.691406 4.828125 24.296875 4.773438 24.015625 4.984375 C 23.738281 5.195312 23.679688 5.597656 23.890625 5.875 C 24.414062 6.578125 24.882812 7.359375 25.300781 8.207031 L 19.382812 8.207031 L 19.382812 4.019531 C 19.382812 3.667969 19.097656 3.382812 18.75 3.382812 C 18.402344 3.382812 18.117188 3.667969 18.117188 4.019531 L 18.117188 8.207031 L 12.199219 8.207031 C 12.617188 7.359375 13.085938 6.578125 13.609375 5.875 C 13.820312 5.59375 13.761719 5.195312 13.484375 4.984375 C 13.203125 4.773438 12.808594 4.828125 12.597656 5.109375 C 11.914062 6.027344 11.3125 7.066406 10.800781 8.207031 L 8.113281 8.207031 C 7.765625 8.207031 7.480469 8.492188 7.480469 8.84375 C 7.480469 9.195312 7.765625 9.480469 8.113281 9.480469 L 10.285156 9.480469 C 9.390625 11.90625 8.875 14.683594 8.8125 17.582031 L 4.644531 17.582031 " fill-opacity="1" fill-rule="nonzero"/><g clip-path="url(#9e6ef67a05)"><path fill="#e4ad44" d="M 25.304688 35.214844 L 12.195312 35.214844 C 11.847656 35.214844 11.5625 35.5 11.5625 35.851562 C 11.5625 36.207031 11.847656 36.492188 12.195312 36.492188 L 25.304688 36.492188 C 25.652344 36.492188 25.9375 36.207031 25.9375 35.851562 C 25.9375 35.5 25.652344 35.214844 25.304688 35.214844 " fill-opacity="1" fill-rule="nonzero"/></g><path fill="#e4ad44" d="M 25.933594 32.140625 C 24.425781 32.140625 23.269531 31.3125 22.972656 30.097656 L 28.757812 30.097656 C 28.757812 30.097656 28.757812 30.097656 28.761719 30.097656 L 28.894531 30.097656 C 28.597656 31.3125 27.441406 32.140625 25.933594 32.140625 Z M 25.933594 25.199219 L 27.734375 28.820312 L 24.132812 28.820312 Z M 18.75 17.371094 C 19.214844 17.371094 19.59375 17.75 19.59375 18.21875 C 19.59375 18.6875 19.214844 19.070312 18.75 19.070312 C 18.285156 19.070312 17.90625 18.6875 17.90625 18.21875 C 17.90625 17.75 18.285156 17.371094 18.75 17.371094 Z M 9.765625 28.820312 L 11.566406 25.199219 L 13.367188 28.820312 Z M 11.566406 32.140625 C 10.058594 32.140625 8.90625 31.3125 8.605469 30.097656 L 8.738281 30.097656 C 8.738281 30.097656 8.738281 30.097656 8.742188 30.097656 L 14.527344 30.097656 C 14.230469 31.3125 13.074219 32.140625 11.566406 32.140625 Z M 29.601562 28.820312 L 29.152344 28.820312 L 26.886719 24.265625 C 27.191406 24.167969 27.507812 24.015625 27.839844 23.796875 C 28.132812 23.605469 28.21875 23.210938 28.027344 22.917969 C 27.835938 22.621094 27.445312 22.539062 27.152344 22.730469 C 26.714844 23.015625 26.332031 23.140625 25.964844 23.140625 C 25.957031 23.140625 25.945312 23.136719 25.933594 23.136719 C 25.925781 23.136719 25.917969 23.140625 25.914062 23.140625 C 25.214844 23.121094 24.570312 22.648438 23.707031 21.96875 C 22.570312 21.070312 21.195312 19.988281 19.382812 20.835938 L 19.382812 20.246094 C 20.238281 19.972656 20.859375 19.167969 20.859375 18.21875 C 20.859375 17.050781 19.914062 16.097656 18.75 16.097656 C 17.585938 16.097656 16.640625 17.050781 16.640625 18.21875 C 16.640625 19.167969 17.261719 19.972656 18.117188 20.246094 L 18.117188 20.835938 C 16.304688 19.988281 14.929688 21.070312 13.792969 21.96875 C 12.933594 22.648438 12.285156 23.117188 11.589844 23.140625 C 11.582031 23.140625 11.574219 23.136719 11.566406 23.136719 C 11.554688 23.136719 11.542969 23.140625 11.53125 23.140625 C 11.167969 23.140625 10.785156 23.015625 10.347656 22.730469 C 10.054688 22.539062 9.664062 22.621094 9.472656 22.917969 C 9.28125 23.210938 9.367188 23.605469 9.660156 23.796875 C 9.992188 24.015625 10.308594 24.167969 10.617188 24.265625 L 8.351562 28.820312 L 7.898438 28.820312 C 7.546875 28.820312 7.265625 29.109375 7.265625 29.460938 C 7.265625 31.714844 9.113281 33.417969 11.566406 33.417969 C 14.019531 33.417969 15.871094 31.714844 15.871094 29.460938 C 15.871094 29.109375 15.585938 28.820312 15.238281 28.820312 L 14.785156 28.820312 L 12.507812 24.246094 C 13.289062 23.984375 13.96875 23.449219 14.574219 22.972656 C 15.917969 21.910156 16.773438 21.339844 18.117188 22.308594 L 18.117188 33.246094 L 15.242188 33.246094 C 14.890625 33.246094 14.609375 33.53125 14.609375 33.886719 C 14.609375 34.238281 14.890625 34.523438 15.242188 34.523438 L 22.257812 34.523438 C 22.609375 34.523438 22.890625 34.238281 22.890625 33.886719 C 22.890625 33.53125 22.609375 33.246094 22.257812 33.246094 L 19.382812 33.246094 L 19.382812 22.308594 C 20.726562 21.339844 21.582031 21.910156 22.925781 22.972656 C 23.53125 23.449219 24.210938 23.984375 24.992188 24.246094 L 22.714844 28.820312 L 22.265625 28.820312 C 21.914062 28.820312 21.632812 29.109375 21.632812 29.460938 C 21.632812 31.714844 23.480469 33.417969 25.933594 33.417969 C 28.386719 33.417969 30.234375 31.714844 30.234375 29.460938 C 30.234375 29.109375 29.953125 28.820312 29.601562 28.820312 " fill-opacity="1" fill-rule="nonzero"/><g clip-path="url(#0bc49ec501)"><path fill="#e4ad44" d="M 18.75 1.242188 C 9.449219 1.242188 1.882812 8.855469 1.882812 18.21875 C 1.882812 21.96875 3.074219 25.523438 5.324219 28.496094 C 5.535156 28.777344 5.929688 28.832031 6.210938 28.617188 C 6.488281 28.40625 6.542969 28.003906 6.328125 27.726562 C 4.25 24.972656 3.148438 21.6875 3.148438 18.21875 C 3.148438 9.558594 10.148438 2.515625 18.75 2.515625 C 27.351562 2.515625 34.351562 9.558594 34.351562 18.21875 C 34.351562 21.6875 33.25 24.972656 31.171875 27.726562 C 30.957031 28.003906 31.011719 28.40625 31.289062 28.617188 C 31.40625 28.707031 31.539062 28.75 31.671875 28.75 C 31.863281 28.75 32.054688 28.660156 32.175781 28.496094 C 34.429688 25.523438 35.617188 21.96875 35.617188 18.21875 C 35.617188 8.855469 28.050781 1.242188 18.75 1.242188 " fill-opacity="1" fill-rule="nonzero"/></g></svg>